<?xml version="1.0" standalone="no"?>
<!DOCTYPE svg PUBLIC "-//W3C//DTD SVG 20010904//EN"
 "http://www.w3.org/TR/2001/REC-SVG-20010904/DTD/svg10.dtd">
<svg version="1.0" xmlns="http://www.w3.org/2000/svg"
 width="70.000000pt" height="70.000000pt" viewBox="0 0 768.000000 768.000000"
 preserveAspectRatio="xMidYMid meet">

<g transform="translate(0.000000,768.000000) scale(0.100000,-0.100000)"
fill="#000000" stroke="none">
<path d="M2890 7350 c0 -5 5 -10 10 -10 6 0 10 5 10 10 0 6 -4 10 -10 10 -5 0
-10 -4 -10 -10z"/>
<path d="M3925 7350 c-3 -5 -1 -10 4 -10 6 0 11 5 11 10 0 6 -2 10 -4 10 -3 0
-8 -4 -11 -10z"/>
<path d="M2950 7335 c-6 -8 -10 -19 -8 -24 1 -6 8 1 15 14 13 28 11 31 -7 10z"/>
<path d="M3011 7333 c12 -20 12 -26 0 -45 -13 -21 -13 -22 2 -9 10 7 17 21 17
31 0 10 -7 24 -17 31 -15 13 -15 12 -2 -8z"/>
<path d="M2888 7253 c6 -2 18 -2 25 0 6 3 1 5 -13 5 -14 0 -19 -2 -12 -5z"/>
<path d="M2915 7230 c3 -5 13 -10 21 -10 8 0 12 5 9 10 -3 6 -13 10 -21 10 -8
0 -12 -4 -9 -10z"/>
<path d="M3010 7230 c-13 -8 -13 -10 2 -10 9 0 18 -6 21 -12 3 -7 4 -3 4 10
-1 24 -5 26 -27 12z"/>
<path d="M3932 7224 c-7 -8 -8 -14 -3 -14 10 0 25 19 20 25 -2 1 -10 -3 -17
-11z"/>
<path d="M5030 7190 c0 -5 7 -10 16 -10 8 0 12 5 9 10 -3 6 -10 10 -16 10 -5
0 -9 -4 -9 -10z"/>
<path d="M2180 6996 c0 -8 4 -17 9 -20 5 -4 7 3 4 14 -6 23 -13 26 -13 6z"/>
<path d="M2610 6940 c0 -19 20 -27 33 -13 8 7 -11 33 -24 33 -5 0 -9 -9 -9
-20z m25 0 c3 -5 1 -10 -4 -10 -6 0 -11 5 -11 10 0 6 2 10 4 10 3 0 8 -4 11
-10z"/>
<path d="M5205 6940 c3 -5 8 -10 11 -10 2 0 4 5 4 10 0 6 -5 10 -11 10 -5 0
-7 -4 -4 -10z"/>
<path d="M5257 6934 c12 -3 24 -13 27 -22 3 -12 4 -11 3 3 -2 14 -10 21 -27
22 -21 1 -21 1 -3 -3z"/>
<path d="M5305 6909 c-4 -6 -5 -12 -2 -15 2 -3 7 2 10 11 7 17 1 20 -8 4z"/>
<path d="M2566 6893 c-6 -14 -5 -15 5 -6 7 7 10 15 7 18 -3 3 -9 -2 -12 -12z"/>
<path d="M5045 6871 c-3 -5 -2 -12 3 -15 5 -3 9 1 9 9 0 17 -3 19 -12 6z"/>
<path d="M3518 6863 c12 -2 30 -2 40 0 9 3 -1 5 -23 4 -22 0 -30 -2 -17 -4z"/>
<path d="M4178 6863 c12 -2 32 -2 45 0 12 2 2 4 -23 4 -25 0 -35 -2 -22 -4z"/>
<path d="M4368 6863 c6 -2 18 -2 25 0 6 3 1 5 -13 5 -14 0 -19 -2 -12 -5z"/>
<path d="M3848 6853 c17 -2 47 -2 65 0 17 2 3 4 -33 4 -36 0 -50 -2 -32 -4z"/>
<path d="M3658 6843 c12 -2 32 -2 45 0 12 2 2 4 -23 4 -25 0 -35 -2 -22 -4z"/>
<path d="M4073 6843 c9 -2 25 -2 35 0 9 3 1 5 -18 5 -19 0 -27 -2 -17 -5z"/>
<path d="M4378 6843 c12 -2 30 -2 40 0 9 3 -1 5 -23 4 -22 0 -30 -2 -17 -4z"/>
<path d="M4450 6840 c8 -5 20 -10 25 -10 6 0 3 5 -5 10 -8 5 -19 10 -25 10 -5
0 -3 -5 5 -10z"/>
<path d="M3338 6833 c12 -2 32 -2 45 0 12 2 2 4 -23 4 -25 0 -35 -2 -22 -4z"/>
<path d="M3548 6833 c6 -2 18 -2 25 0 6 3 1 5 -13 5 -14 0 -19 -2 -12 -5z"/>
<path d="M4183 6833 c9 -2 23 -2 30 0 6 3 -1 5 -18 5 -16 0 -22 -2 -12 -5z"/>
<path d="M3478 6823 c7 -3 16 -2 19 1 4 3 -2 6 -13 5 -11 0 -14 -3 -6 -6z"/>
<path d="M4268 6823 c6 -2 18 -2 25 0 6 3 1 5 -13 5 -14 0 -19 -2 -12 -5z"/>
<path d="M3408 6813 c7 -3 16 -2 19 1 4 3 -2 6 -13 5 -11 0 -14 -3 -6 -6z"/>
<path d="M4348 6813 c7 -3 16 -2 19 1 4 3 -2 6 -13 5 -11 0 -14 -3 -6 -6z"/>
<path d="M3348 6803 c7 -3 16 -2 19 1 4 3 -2 6 -13 5 -11 0 -14 -3 -6 -6z"/>
<path d="M4408 6803 c7 -3 16 -2 19 1 4 3 -2 6 -13 5 -11 0 -14 -3 -6 -6z"/>
<path d="M3046 6791 c-18 -7 -18 -8 -2 -14 27 -11 43 -8 26 4 -12 9 -11 10 8
6 12 -3 20 -1 16 4 -6 11 -21 11 -48 0z"/>
<path d="M3288 6793 c7 -3 16 -2 19 1 4 3 -2 6 -13 5 -11 0 -14 -3 -6 -6z"/>
<path d="M4672 6794 c3 -3 24 -5 47 -6 22 0 38 -4 35 -9 -3 -5 4 -9 15 -9 25
0 36 16 15 24 -20 8 -119 8 -112 0z"/>
<path d="M4558 6773 c7 -3 16 -2 19 1 4 3 -2 6 -13 5 -11 0 -14 -3 -6 -6z"/>
<path d="M3665 6758 c-1071 -78 -2057 -791 -2498 -1808 -162 -374 -237 -743
-237 -1170 0 -442 86 -821 286 -1250 222 -479 576 -889 1024 -1187 354 -236
771 -392 1225 -460 174 -25 679 -26 850 0 264 39 552 118 762 208 487 208 895
531 1225 970 217 288 402 699 487 1084 53 241 63 318 68 556 13 539 -75 956
-292 1389 -160 319 -348 574 -611 830 -504 491 -1168 789 -1869 840 -159 11
-248 11 -420 -2z m670 -96 c346 -63 638 -164 920 -318 264 -145 461 -290 661
-489 267 -265 454 -531 630 -900 72 -149 109 -252 155 -432 36 -142 68 -365
56 -395 -3 -7 -6 -3 -6 9 -1 30 -21 40 -37 18 -8 -11 -11 -34 -7 -66 6 -51 5
-53 -21 -43 -20 8 -21 24 -1 24 29 0 15 18 -27 35 -24 9 -51 23 -60 32 -9 8
-22 12 -27 8 -6 -3 -11 -2 -11 4 0 5 5 11 11 13 6 2 -8 12 -32 23 -52 23 -92
51 -95 68 -1 7 -5 19 -8 27 -5 12 2 15 30 15 44 0 65 24 45 49 -8 9 -24 16
-36 16 -12 0 -28 7 -35 15 -15 18 -7 31 12 19 7 -5 28 -14 46 -20 42 -15 44 6
2 36 -19 13 -32 33 -36 55 -3 20 -13 37 -24 40 -13 4 -20 20 -25 58 -4 29 -14
68 -22 87 l-15 35 -12 -40 c-16 -53 -58 -125 -73 -125 -26 0 -179 129 -236
199 -92 114 -178 201 -198 201 -10 0 -33 -16 -52 -36 l-34 -36 -108 95 c-80
70 -113 93 -124 87 -8 -4 -45 -64 -81 -132 -61 -112 -72 -126 -124 -162 -32
-21 -67 -54 -79 -72 -19 -30 -27 -34 -66 -34 -24 0 -61 5 -82 11 -32 10 -42 9
-63 -5 -14 -9 -28 -29 -31 -44 -20 -100 -69 -291 -80 -308 -22 -35 -73 -52
-138 -47 -53 5 -61 3 -87 -22 -28 -27 -29 -27 -79 -12 -78 23 -89 17 -151 -86
-70 -115 -97 -142 -197 -195 l-81 -43 -38 26 c-21 14 -48 28 -61 31 -27 7 -28
12 -7 35 15 17 15 21 -6 54 -17 27 -20 39 -11 48 29 29 -14 97 -62 97 -9 0
-19 5 -22 10 -4 6 -10 8 -15 5 -5 -3 -4 8 2 25 6 17 8 54 5 83 -3 41 -10 56
-36 79 -58 52 -132 49 -188 -7 -28 -28 -33 -40 -33 -82 0 -26 4 -63 10 -82 8
-30 7 -36 -13 -50 -53 -37 -77 -69 -77 -105 0 -26 -4 -36 -16 -36 -28 0 -85
-52 -109 -100 -33 -66 -53 -141 -65 -254 -6 -54 -17 -132 -26 -172 -14 -69
-13 -81 7 -206 12 -73 23 -155 24 -183 1 -27 6 -85 10 -128 9 -85 24 -107 76
-107 39 0 51 20 38 59 -9 24 -8 39 4 69 14 36 15 35 21 -93 4 -72 10 -161 14
-200 5 -38 6 -98 4 -133 l-4 -64 -210 6 c-207 5 -238 11 -238 41 0 7 -7 18
-15 25 -8 7 -12 16 -9 21 3 5 0 9 -5 9 -6 0 -11 13 -11 30 0 16 -4 39 -9 52
-6 13 -13 41 -17 63 l-7 40 -18 -69 c-10 -39 -16 -73 -13 -77 2 -4 0 -10 -6
-14 -5 -3 -10 -15 -10 -26 0 -10 -4 -19 -10 -19 -5 0 -10 8 -10 19 0 27 -21
81 -31 81 -5 0 -9 -11 -9 -25 0 -14 -4 -25 -10 -25 -5 0 -7 6 -4 14 3 8 1 17
-4 20 -6 3 -8 15 -5 26 3 11 0 20 -6 20 -7 0 -9 14 -6 40 3 23 1 40 -5 40 -5
0 -13 18 -16 41 -4 22 -10 37 -14 32 -12 -13 -34 -87 -31 -105 1 -10 -3 -18
-9 -18 -7 0 -10 -7 -7 -15 4 -8 3 -16 -1 -19 -12 -7 -29 7 -36 32 -6 16 -3 22
8 22 23 0 19 16 -9 38 -24 19 -36 50 -15 37 6 -3 10 -2 10 4 0 5 -5 13 -10 16
-6 4 -8 15 -5 26 4 10 3 19 -2 19 -11 0 -33 49 -33 72 0 32 -16 19 -29 -22 -6
-22 -17 -40 -23 -40 -5 0 -8 -9 -5 -20 3 -11 1 -20 -5 -20 -5 0 -7 -9 -3 -19
6 -21 -13 -61 -30 -61 -5 0 -11 12 -11 26 -1 14 -11 35 -22 47 -11 12 -17 28
-15 34 3 7 -2 16 -11 19 -23 9 -20 26 4 19 33 -11 23 14 -15 37 -20 11 -33 23
-30 26 3 3 11 0 17 -6 15 -15 38 -16 38 -1 0 6 -12 25 -26 42 -20 23 -22 32
-12 39 11 6 10 10 -1 17 -13 8 -17 23 -20 79 -2 37 -31 27 -31 -10 -1 -44 -16
-109 -28 -117 -18 -11 -25 -53 -11 -62 11 -7 8 -15 -15 -35 -24 -21 -26 -28
-15 -35 12 -8 12 -10 -1 -18 -12 -8 -12 -12 3 -29 16 -18 16 -19 -8 -32 -14
-7 -25 -17 -25 -22 0 -4 -5 -8 -11 -8 -7 0 -9 10 -5 25 6 22 2 28 -26 40 l-33
13 28 11 c15 6 27 14 27 19 0 13 -31 39 -65 53 l-30 13 38 4 c20 2 37 6 37 10
-1 4 -19 19 -41 35 -40 27 -46 49 -10 40 33 -8 32 15 -1 41 -33 26 -33 26 -8
26 27 0 58 15 49 24 -2 3 -25 14 -49 25 -32 15 -39 21 -23 21 12 0 27 9 33 20
9 18 6 25 -19 49 -17 16 -31 34 -31 39 0 6 -8 17 -18 24 -23 16 -25 47 -2 41
19 -5 59 35 44 45 -39 27 -53 41 -68 71 -13 25 -15 36 -6 41 9 6 8 14 -3 36
-8 16 -17 56 -20 88 -8 80 -23 92 -32 24 -12 -97 -28 -158 -47 -174 -25 -24
-24 -48 3 -41 20 5 20 5 2 -16 -10 -11 -26 -29 -35 -39 -36 -37 -13 -62 33
-38 16 9 16 6 -5 -25 -14 -20 -26 -39 -28 -43 -2 -4 -18 -18 -36 -31 -30 -21
-32 -25 -18 -40 10 -11 12 -21 6 -31 -14 -22 -12 -50 5 -56 8 -3 28 4 45 16
16 12 30 17 30 11 0 -5 -8 -16 -18 -23 -25 -19 -62 -68 -62 -84 0 -8 8 -14 17
-14 13 0 11 -6 -10 -28 -31 -32 -34 -42 -12 -42 17 0 20 -16 4 -25 -6 -4 -24
-25 -40 -47 l-29 -41 0 40 c0 23 -6 46 -14 53 -12 9 -19 4 -40 -29 -27 -42
-64 -81 -78 -81 -5 0 -7 3 -5 8 3 4 -6 8 -20 9 -36 2 -55 23 -21 23 31 0 65
13 93 35 19 15 19 17 3 26 -16 9 -15 13 12 39 17 16 30 32 30 36 0 4 -26 4
-57 0 -33 -3 -65 -2 -73 4 -11 7 -7 10 20 11 19 0 46 4 60 8 l25 7 -22 15
c-26 16 -30 29 -8 29 8 0 15 5 15 12 0 16 -31 48 -47 48 -16 0 -17 17 -1 22 9
3 8 12 -6 32 -11 17 -15 37 -12 51 3 13 2 27 -4 30 -5 3 -10 22 -10 41 0 42
-17 44 -31 4 -13 -37 -29 -38 -66 -4 -26 23 -26 25 -6 21 13 -3 28 2 37 12 15
16 14 20 -13 47 -28 27 -28 29 -10 42 26 18 24 26 -13 40 -30 11 -31 13 -14
25 24 18 17 51 -12 55 -12 2 -22 7 -22 12 0 5 -3 15 -6 23 -4 11 2 16 18 19
34 5 37 45 4 54 -31 7 -31 9 -6 34 23 23 27 60 6 60 -23 0 -50 31 -35 40 9 6
8 19 -5 56 -9 26 -16 58 -16 70 0 12 -3 30 -6 39 -10 26 -24 -3 -24 -51 0 -24
-6 -47 -15 -54 -8 -7 -13 -16 -10 -20 3 -4 -2 -11 -10 -14 -12 -4 -13 -10 -5
-25 7 -13 7 -28 0 -45 -13 -34 -24 -33 -17 2 4 22 -4 37 -44 82 -45 51 -47 55
-27 60 20 5 20 6 -7 38 -15 17 -22 32 -17 32 5 0 15 -7 22 -15 16 -19 50 -20
50 -1 0 8 -5 18 -10 21 -6 4 -10 12 -9 18 4 19 -23 67 -36 67 -8 0 -10 10 -7
25 2 14 -1 31 -7 39 -6 7 -15 52 -20 100 -5 48 -12 90 -15 94 -12 12 -26 -22
-26 -66 0 -24 -8 -57 -17 -75 -9 -18 -15 -47 -14 -65 2 -24 -4 -41 -19 -57
-15 -16 -20 -30 -15 -44 5 -17 2 -21 -15 -21 -18 0 -20 -4 -14 -22 8 -27 22
-38 41 -31 10 4 11 0 5 -18 -5 -14 -28 -33 -56 -46 -61 -30 -62 -50 -1 -43 19
2 19 1 2 -17 -22 -25 -22 -39 1 -48 13 -5 7 -12 -30 -31 -47 -24 -61 -49 -34
-60 20 -8 10 -31 -16 -37 -25 -7 -71 10 -63 23 3 5 -5 22 -19 37 -30 32 -32
39 -11 47 19 7 19 30 0 46 -8 7 -15 20 -15 30 0 24 -34 60 -57 60 -12 0 -26 6
-32 14 -9 11 -5 15 19 19 38 8 38 19 -2 53 -24 20 -28 26 -13 22 17 -4 20 1
22 29 2 22 -4 40 -17 53 -16 16 -18 25 -10 45 7 19 6 26 -6 33 -13 7 -14 15
-4 51 6 23 8 45 6 50 -6 10 22 171 32 188 4 5 28 20 54 31 28 12 48 27 48 36
0 9 4 16 8 16 24 0 189 124 303 227 128 116 149 141 129 153 -19 12 37 190 59
190 5 0 17 -12 26 -27 10 -16 28 -39 40 -53 12 -14 30 -46 39 -72 17 -46 60
-93 76 -83 13 8 37 -27 95 -139 31 -60 71 -127 90 -147 19 -21 43 -56 54 -78
19 -35 41 -61 41 -47 0 3 -14 34 -32 70 -19 40 -29 70 -24 82 6 15 14 11 57
-32 40 -39 50 -44 44 -25 -7 23 20 101 35 101 3 0 48 -73 100 -162 105 -185
205 -325 294 -413 87 -86 209 -189 287 -240 80 -53 285 -157 376 -191 68 -26
77 -17 14 15 -66 34 -324 202 -376 245 -160 133 -240 219 -249 269 -2 15 -13
35 -22 44 -16 17 -17 16 -11 -10 22 -88 23 -85 -14 -41 -19 23 -67 80 -108
128 -40 48 -72 88 -70 90 9 6 90 46 95 46 3 0 2 -10 -2 -22 -6 -20 -5 -21 10
-9 14 12 16 11 16 -6 0 -36 14 -34 25 2 5 20 14 36 19 36 9 0 33 -51 51 -110
6 -20 4 -23 -9 -18 -11 5 -16 1 -16 -13 0 -12 5 -17 14 -14 13 5 48 -35 154
-176 46 -62 122 -130 144 -130 6 0 -17 29 -51 65 -58 62 -132 185 -112 185 5
0 32 -29 60 -65 28 -36 54 -65 57 -65 10 0 -47 96 -73 124 -14 16 -38 32 -53
37 -21 8 -38 34 -86 132 -32 67 -63 125 -69 129 -5 4 -19 1 -30 -6 -20 -13
-166 -60 -169 -54 -1 2 -19 32 -40 68 -58 97 -124 196 -140 209 -11 9 -24 3
-64 -29 -28 -22 -57 -37 -65 -35 -18 7 -105 108 -147 170 -18 28 -43 61 -55
75 -12 14 -39 50 -60 80 -48 70 -144 180 -157 180 -5 0 -71 -59 -147 -130 -75
-72 -155 -142 -176 -157 -58 -40 -169 -93 -173 -82 -2 4 15 52 38 106 188 441
483 827 870 1136 185 148 307 228 495 323 271 137 488 213 762 268 197 40 263
45 578 41 234 -3 311 -7 400 -23z m-2765 -1706 c0 -44 -324 -367 -415 -413
-16 -9 -39 -23 -49 -32 -18 -15 -19 -15 -12 14 4 16 13 33 19 37 77 46 207
153 207 170 0 6 -24 -11 -52 -37 -91 -82 -169 -128 -155 -92 2 6 13 35 23 64
14 40 24 53 44 57 51 11 227 118 298 181 74 66 92 76 92 51z m4057 -73 c-4 -3
-2 -14 4 -24 12 -23 44 -26 35 -4 -7 19 8 20 23 2 8 -10 7 -27 -4 -63 -18 -61
-41 -96 -49 -74 -3 8 -15 42 -27 75 -12 33 -23 82 -26 110 l-5 49 27 -32 c15
-18 25 -35 22 -39z m-86 -62 c-8 -38 1 -58 12 -28 3 6 6 -8 6 -33 1 -25 4 -56
6 -70 3 -14 3 -19 -1 -12 -11 22 -25 13 -44 -30 -19 -43 -214 -248 -225 -237
-3 3 12 30 33 60 22 30 37 59 35 65 -2 7 17 57 42 113 25 56 45 106 45 111 0
6 7 13 15 16 8 3 26 31 40 62 22 47 28 54 36 40 6 -10 6 -32 0 -57z m329 30
c0 -5 20 -31 43 -57 48 -53 111 -148 121 -182 5 -14 31 -34 68 -52 33 -17 91
-53 129 -80 38 -28 75 -50 82 -50 28 0 25 -13 -14 -62 -21 -27 -39 -61 -39
-74 0 -28 7 -29 34 -9 24 18 36 19 36 2 0 -7 -31 -39 -70 -71 -73 -61 -83 -76
-51 -76 11 0 18 -6 17 -16 -2 -34 28 -38 72 -10 25 15 39 20 36 12 -6 -17
-101 -59 -113 -52 -5 3 -8 -2 -7 -11 2 -31 -20 -22 -78 32 -32 30 -64 55 -71
55 -7 0 -18 6 -24 14 -10 12 -8 13 8 9 25 -6 26 -3 4 41 -13 28 -23 36 -53 41
-38 6 -61 29 -120 115 l-23 35 31 -29 c17 -16 29 -32 27 -37 -3 -4 4 -5 15 -2
45 12 37 61 -15 92 -24 14 -42 36 -55 67 -14 33 -25 45 -37 42 -14 -2 -20 -17
-25 -63 -4 -33 -14 -80 -22 -104 -9 -24 -16 -55 -16 -68 0 -14 -11 -38 -24
-53 -15 -19 -26 -48 -30 -83 -6 -48 -12 -58 -48 -87 -37 -30 -68 -81 -68 -113
0 -7 9 -23 20 -35 27 -28 26 -33 -15 -86 -19 -26 -35 -54 -35 -64 0 -10 -31
-50 -70 -91 -69 -71 -85 -96 -55 -85 12 5 15 -5 15 -61 0 -58 -4 -73 -26 -102
-22 -29 -25 -39 -16 -58 10 -21 8 -27 -14 -44 -31 -25 -29 -57 4 -53 32 5 27
-16 -8 -36 -22 -13 -30 -24 -30 -46 0 -26 2 -28 30 -22 28 5 30 4 20 -14 -6
-11 -18 -24 -28 -29 -45 -26 -47 -28 -32 -46 12 -15 11 -19 -7 -33 -21 -16
-21 -18 -5 -38 10 -11 24 -18 32 -16 8 3 -1 -11 -20 -31 -38 -40 -50 -45 -50
-22 0 9 -11 27 -25 41 -13 13 -24 32 -22 42 3 27 -13 112 -22 112 -8 0 -11
-16 -27 -120 -2 -19 -11 -41 -19 -50 -8 -9 -15 -20 -15 -25 0 -4 -8 -14 -17
-21 -17 -12 -17 -14 2 -29 14 -11 16 -18 8 -21 -7 -3 -13 -16 -13 -28 0 -26
-9 -38 -22 -30 -5 3 -4 12 3 20 8 10 8 14 0 14 -6 0 -9 13 -7 30 2 20 -2 34
-13 40 -14 8 -13 11 7 25 25 18 21 35 -9 35 -25 0 -25 26 1 33 11 3 20 10 20
16 0 7 -10 9 -26 5 -19 -5 -25 -4 -20 5 4 6 15 11 24 12 12 0 11 3 -5 9 -28
12 -29 26 -3 33 25 7 25 21 0 45 -13 12 -23 41 -30 92 -6 41 -12 76 -14 78 -4
4 -26 -90 -26 -111 0 -34 -27 -66 -63 -77 -43 -13 -41 -24 4 -26 39 -2 47 -11
26 -31 -15 -15 -15 -17 1 -29 15 -11 14 -13 -11 -25 -31 -14 -36 -29 -9 -29
26 0 34 -11 21 -26 -6 -8 -9 -27 -7 -44 5 -32 -3 -38 -21 -16 -8 10 -9 16 -1
21 15 9 12 25 -5 25 -8 0 -15 -5 -15 -12 0 -6 -7 -20 -16 -30 -14 -14 -14 -20
-4 -33 8 -10 9 -15 1 -15 -6 0 -11 -15 -11 -32 1 -48 -11 -117 -20 -123 -5 -3
-11 4 -15 14 -4 12 -12 18 -21 14 -9 -3 -14 2 -14 15 0 12 -5 33 -11 49 -10
26 -12 26 -19 8 -4 -11 -10 -46 -14 -78 -6 -49 -10 -56 -22 -46 -19 15 -20 14
-36 -50 -13 -49 -17 -55 -51 -67 -21 -7 -50 -22 -65 -32 -24 -18 -50 -20 -275
-24 l-249 -3 6 45 c13 104 27 289 25 346 -2 43 3 68 14 84 l16 23 5 -24 c11
-54 17 -95 17 -119 0 -36 33 -55 68 -40 36 15 66 70 57 107 -4 15 -9 82 -11
148 -5 130 -20 246 -35 275 -6 10 -8 25 -5 32 6 16 -30 406 -40 429 -5 13 10
25 62 54 123 67 174 120 248 256 l30 55 52 -16 c52 -16 53 -16 37 -39 -12 -16
-23 -21 -38 -17 -18 4 -36 -12 -104 -94 -45 -55 -78 -100 -72 -100 5 0 42 29
81 64 45 40 85 67 105 71 37 6 83 53 115 116 20 41 21 41 66 34 58 -8 138 11
161 39 9 12 56 54 104 94 101 84 118 105 182 227 46 86 77 124 102 125 30 0
-34 -171 -82 -220 -19 -20 -34 -45 -34 -55 0 -11 -26 -47 -59 -80 -287 -292
-489 -487 -570 -547 -106 -80 -165 -128 -156 -128 13 0 252 166 295 205 72 64
171 138 177 131 17 -17 -137 -181 -239 -255 -56 -40 -57 -55 -1 -17 20 14 43
26 50 26 17 0 150 109 206 168 65 70 76 96 51 123 -19 21 -18 21 16 51 19 17
91 81 160 143 69 61 193 172 275 244 83 73 164 146 182 162 17 16 42 29 56 29
18 0 28 9 43 41 26 58 52 89 75 89 12 0 25 13 36 35 16 33 33 46 33 26z
m-3845 -209 c-8 -8 -25 17 -25 38 0 9 6 6 16 -8 9 -13 13 -26 9 -30z m3115
-37 c7 -8 18 -15 24 -15 35 -1 36 -17 4 -73 -35 -62 -49 -69 -71 -36 -15 20
-15 20 -21 1 -4 -10 -4 -26 -1 -33 5 -14 -53 -104 -61 -96 -2 2 6 51 18 108
16 80 27 110 47 130 31 31 44 34 61 14z m1181 -108 c-8 -8 -11 -7 -11 4 0 20
13 34 18 19 3 -7 -1 -17 -7 -23z m-447 -223 c4 -10 2 -13 -6 -8 -8 5 -9 1 -4
-12 5 -14 4 -16 -4 -8 -6 6 -8 18 -4 27 8 21 10 21 18 1z m-44 -71 c0 -18 17
-16 28 3 7 13 12 10 25 -19 18 -37 20 -58 11 -94 -9 -32 -19 -29 -32 10 -8 25
-10 27 -11 10 -1 -26 -11 -29 -29 -11 -9 9 -12 9 -13 -2 -1 -8 -1 -19 0 -23 1
-5 -3 -6 -9 -2 -5 3 -10 -2 -11 -12 0 -16 -1 -16 -8 2 l-8 20 -5 -20 c-10 -40
-20 54 -12 102 8 44 34 73 34 39 0 -9 5 -16 11 -16 8 0 10 14 6 43 l-6 42 14
-30 c8 -16 14 -36 15 -42z m90 -5 c0 -21 -19 -4 -29 25 l-11 32 20 -25 c11
-14 20 -28 20 -32z m15 -46 c-4 -15 -2 -21 4 -17 7 4 8 -1 4 -11 -6 -16 -7
-15 -20 2 -18 24 -17 51 3 51 11 0 14 -7 9 -25z m110 -42 c17 -18 17 -20 2
-14 -14 5 -16 1 -14 -17 4 -26 27 -39 27 -15 0 20 17 21 36 1 9 -8 26 -15 40
-15 14 0 24 -6 24 -14 0 -8 14 -19 30 -25 33 -11 39 -28 14 -38 -8 -3 -13 -12
-10 -19 3 -8 -3 -20 -14 -26 -23 -14 -26 -38 -8 -56 21 -21 68 -13 115 18 25
17 43 25 41 18 -5 -15 -88 -76 -104 -77 -26 -2 -59 -81 -34 -81 14 0 0 -32
-28 -62 -21 -23 -23 -30 -12 -42 9 -11 17 -13 30 -6 29 16 32 12 15 -19 -8
-16 -28 -39 -45 -51 -36 -26 -38 -36 -7 -44 l22 -6 -27 -23 c-35 -29 -35 -34
3 -49 l30 -13 -32 -30 c-23 -22 -33 -26 -37 -16 -2 7 -12 21 -22 30 -10 9 -34
31 -54 49 -37 33 -49 69 -20 58 35 -14 95 60 63 79 -6 4 -8 14 -5 22 3 8 1 11
-4 8 -6 -3 -10 -3 -10 2 0 4 -18 28 -41 51 -40 44 -59 100 -59 175 l0 31 29
-28 c33 -32 67 -30 56 3 -3 12 0 21 10 25 23 8 18 34 -11 52 -14 9 -23 23 -20
30 3 7 0 15 -7 17 -9 3 -9 7 0 18 15 18 25 69 13 69 -11 0 -21 30 -14 41 8 14
19 11 39 -11z m516 -24 c-8 -9 -8 -16 -2 -20 5 -4 12 -2 16 4 11 17 23 11 27
-12 2 -19 12 -25 51 -32 51 -9 60 -25 28 -53 -11 -9 -17 -21 -15 -28 3 -6 -2
-18 -11 -25 -8 -7 -15 -19 -15 -27 0 -8 -11 -24 -25 -35 -33 -25 -32 -36 5
-52 31 -13 31 -13 12 -36 -13 -17 -24 -21 -40 -16 -12 4 -22 14 -22 22 0 8
-11 19 -24 24 -22 8 -76 74 -76 91 0 4 16 3 35 -1 25 -6 45 -4 65 7 36 17 37
25 8 66 -13 18 -22 37 -20 44 1 6 -9 20 -23 30 -15 10 -38 28 -53 40 l-27 23
33 -11 c26 -9 37 -8 55 4 26 17 35 14 18 -7z m-568 -24 c2 7 4 1 3 -14 0 -16
-1 -28 -2 -28 0 0 -11 15 -24 33 -20 27 -21 29 -3 14 16 -14 22 -15 26 -5z
m-213 -36 c0 -2 -7 -6 -15 -10 -8 -3 -15 -1 -15 4 0 6 7 10 15 10 8 0 15 -2
15 -4z m81 -80 c0 -11 3 -15 6 -8 8 20 40 14 46 -10 4 -15 -1 -30 -14 -44 -15
-16 -18 -28 -13 -49 5 -21 2 -31 -11 -41 -12 -9 -16 -20 -11 -38 4 -18 1 -29
-15 -40 -22 -15 -18 -36 7 -36 8 0 14 -8 14 -17 0 -20 -38 -63 -56 -63 -13 0
-24 -22 -24 -51 0 -28 35 -59 59 -52 29 7 26 -9 -6 -32 -63 -46 -86 -72 -80
-88 4 -10 16 -17 28 -17 21 0 22 -1 4 -20 -10 -11 -26 -20 -37 -20 -20 0 -23
-16 -8 -40 7 -12 15 -13 40 -3 40 15 30 0 -15 -22 -30 -13 -34 -19 -24 -31 13
-16 5 -30 -44 -76 l-29 -26 22 -12 c12 -7 31 -10 41 -7 32 8 12 -10 -37 -33
-29 -15 -43 -27 -40 -36 3 -8 0 -14 -7 -15 -7 0 3 -6 22 -13 l33 -12 -25 -11
c-14 -7 -31 -21 -36 -32 -9 -16 -7 -23 9 -34 22 -15 17 -27 -11 -27 -10 0 -21
9 -24 20 -4 11 -21 26 -38 34 l-32 13 32 7 c53 12 58 29 18 64 -19 17 -35 33
-35 35 0 2 10 3 23 3 34 -1 26 22 -18 49 -39 24 -39 24 -12 25 15 0 27 4 27 9
0 5 -12 17 -27 27 l-28 18 24 6 c38 9 36 28 -3 51 -20 11 -36 26 -36 31 0 10
8 8 63 -9 12 -4 17 0 17 16 0 11 -6 21 -12 21 -14 1 -54 50 -40 50 16 0 0 59
-18 65 -19 6 -40 71 -40 124 0 40 16 40 25 1 9 -40 32 -38 41 3 5 22 9 27 13
16 3 -8 16 -28 28 -43 18 -23 25 -25 42 -17 10 6 22 16 24 23 4 10 7 10 15 0
7 -11 11 -7 17 15 l7 28 10 -27 c14 -41 28 -34 28 15 1 34 2 39 11 24 11 -18
12 -18 29 0 22 24 31 80 14 87 -7 3 -15 22 -17 43 -2 22 -3 16 -2 -14 1 -29
-2 -53 -6 -53 -4 0 -5 -9 -2 -20 4 -16 2 -19 -11 -14 -11 4 -16 19 -16 48 0
66 -17 79 -31 25 l-12 -46 -21 41 c-14 26 -28 41 -41 42 -11 1 -26 2 -33 3
-20 2 -3 53 24 74 13 10 35 40 50 66 20 38 30 47 45 44 13 -4 19 0 19 11 0 9
12 19 26 22 15 4 36 16 46 26 15 15 22 17 34 7 8 -6 14 -21 15 -33z m-2177 3
c-6 -11 -24 -2 -24 11 0 5 7 7 15 4 8 -4 12 -10 9 -15z m232 -15 c-11 -7 -22
-11 -25 -8 -3 3 3 12 13 20 11 7 22 11 25 8 3 -3 -3 -12 -13 -20z m-290 -4 c0
-11 -4 -20 -8 -20 -10 0 -11 24 -1 33 9 9 9 10 9 -13z m328 -5 c-10 -8 -23
-15 -28 -15 -6 0 -1 7 10 15 10 8 23 15 28 15 6 0 1 -7 -10 -15z m-137 -61
c-3 -3 -12 -4 -19 -1 -8 3 -5 6 6 6 11 1 17 -2 13 -5z m123 -4 c0 -5 -5 -10
-11 -10 -5 0 -7 5 -4 10 3 6 8 10 11 10 2 0 4 -4 4 -10z m-310 -49 c3 -2 -2
-2 -11 2 -13 4 -16 1 -12 -13 3 -11 16 -21 32 -23 24 -4 23 -4 -6 -6 -26 -1
-33 4 -42 30 -16 47 -14 54 12 33 12 -10 24 -21 27 -23z m284 4 c-4 -8 -11
-15 -16 -15 -6 0 -5 6 2 15 7 8 14 15 16 15 2 0 1 -7 -2 -15z m-2807 -51 c-3
-3 -12 -4 -19 -1 -8 3 -5 6 6 6 11 1 17 -2 13 -5z m2750 0 c-3 -3 -12 -4 -19
-1 -8 3 -5 6 6 6 11 1 17 -2 13 -5z m-2305 -22 c11 -5 14 -12 9 -21 -7 -10
-13 -11 -30 -2 -39 21 -21 40 21 23z m5044 -28 c-3 -8 -2 -12 4 -9 5 3 18 2
27 -4 12 -6 31 -5 58 5 65 22 52 8 -29 -31 -68 -32 -74 -38 -67 -58 6 -15 19
-24 42 -28 l34 -6 -29 -11 c-25 -11 -31 -10 -54 14 -15 14 -39 32 -54 40 -16
8 -28 19 -28 24 0 13 17 13 25 0 5 -8 45 -15 45 -7 0 1 -4 17 -9 35 -9 29 -7
34 12 42 30 12 30 12 23 -6z m-5258 -45 c-44 -36 -46 -44 -15 -53 19 -6 15
-10 -30 -27 -28 -11 -54 -27 -57 -36 -9 -23 42 -64 72 -58 12 3 22 1 22 -5 0
-5 -5 -10 -10 -10 -6 0 -30 -18 -53 -39 -40 -37 -44 -38 -67 -25 -22 12 -23
13 -5 14 27 1 70 35 61 49 -4 6 -26 21 -48 32 -38 19 -40 22 -22 32 10 5 21
12 23 14 3 2 -7 16 -22 31 l-26 27 45 0 c35 0 50 5 63 22 19 23 80 63 96 63 6
-1 -7 -14 -27 -31z m244 2 c-11 -6 -8 -14 12 -36 25 -27 27 -28 46 -10 24 22
33 17 15 -8 -19 -26 -74 -28 -89 -3 -6 11 -22 30 -36 42 l-25 23 45 1 c28 0
40 -3 32 -9z m1988 -22 c0 -17 -4 -28 -10 -24 -5 3 -10 17 -10 31 0 13 5 24
10 24 6 0 10 -14 10 -31z m2087 -1 c-3 -7 -5 -2 -5 12 0 14 2 19 5 13 2 -7 2
-19 0 -25z m373 -42 c0 -5 -13 3 -30 19 -16 16 -30 33 -30 39 0 5 14 -3 30
-19 17 -16 30 -33 30 -39z m240 9 c-7 -8 -17 -15 -23 -15 -5 0 -2 9 8 20 21
23 35 19 15 -5z m-2503 -21 c-3 -3 -12 -4 -19 -1 -8 3 -5 6 6 6 11 1 17 -2 13
-5z m-2157 -79 c0 -21 -29 -26 -39 -7 -7 14 -4 17 15 18 14 1 24 -4 24 -11z
m4980 -21 c0 -11 -8 -14 -32 -12 -46 4 -49 28 -4 28 26 0 36 -4 36 -16z
m-5033 -30 c11 -3 23 -14 26 -25 7 -25 -2 -24 -38 6 -30 25 -27 29 12 19z
m-267 -98 c0 -3 -4 -8 -10 -11 -5 -3 -10 -1 -10 4 0 6 5 11 10 11 6 0 10 -2
10 -4z m305 -16 c-3 -5 -10 -10 -16 -10 -5 0 -9 5 -9 10 0 6 7 10 16 10 8 0
12 -4 9 -10z m4505 -10 c0 -5 11 -10 25 -10 33 0 32 -7 -7 -47 -32 -33 -31
-34 12 -46 11 -3 9 -7 -9 -16 -21 -12 -26 -10 -51 21 -21 24 -24 34 -14 36 22
5 16 29 -12 51 l-27 21 42 0 c22 0 41 -4 41 -10z m-4303 -97 c-10 -10 -22 -13
-34 -8 -17 6 -16 8 3 15 12 5 25 14 30 21 6 11 9 10 12 0 2 -7 -3 -20 -11 -28z
m2473 -107 c-7 -7 -10 11 -9 55 l1 64 9 -54 c6 -36 6 -58 -1 -65z m1780 39
c10 -12 10 -15 -3 -15 -8 0 -20 7 -27 15 -10 12 -10 15 3 15 8 0 20 -7 27 -15z
m108 -42 c17 -3 32 -8 32 -11 0 -3 -14 -21 -32 -39 -25 -26 -40 -33 -70 -33
-21 0 -38 5 -38 10 0 6 12 10 26 10 23 0 54 20 54 34 0 4 -15 16 -32 27 l-33
21 30 -7 c17 -3 45 -9 63 -12z m-1897 -42 c-12 -8 -51 -4 -51 5 0 2 15 4 33 4
22 0 28 -3 18 -9z m29 -35 c0 -2 -7 -9 -15 -16 -13 -11 -14 -10 -9 4 5 14 24
23 24 12z m1060 -161 c-14 -17 -40 -20 -40 -6 0 8 18 16 44 20 5 0 3 -6 -4
-14z m-3230 -4 c0 -5 -9 -11 -21 -14 -16 -4 -18 -3 -8 9 13 16 29 19 29 5z
m3545 -71 c-3 -5 -11 -10 -16 -10 -6 0 -7 5 -4 10 3 6 11 10 16 10 6 0 7 -4 4
-10z m-3688 -52 c22 -11 27 -16 13 -13 -50 13 -79 13 -74 0 3 -7 17 -10 32 -8
23 3 24 2 7 -6 -27 -13 -58 -13 -50 -1 3 6 1 10 -4 10 -6 0 -11 -4 -11 -10 0
-5 -4 -10 -9 -10 -5 0 -7 8 -4 18 3 12 -4 21 -24 29 -26 11 -23 11 29 11 34
-1 72 -9 95 -20z m735 -20 c-9 -9 -12 -7 -12 12 0 19 3 21 12 12 9 -9 9 -15 0
-24z m1403 -11 c-4 -19 -20 -50 -37 -68 -18 -21 -24 -24 -14 -9 25 37 46 87
46 106 0 10 3 15 6 12 3 -3 2 -22 -1 -41z m-2538 17 c-3 -3 -12 -4 -19 -1 -8
3 -5 6 6 6 11 1 17 -2 13 -5z m57 -19 c3 -8 16 -15 28 -15 19 0 20 2 8 10 -24
16 -2 11 31 -6 39 -20 31 -28 -20 -19 -41 7 -99 45 -69 45 9 0 18 -7 22 -15z
m2256 -131 c0 -93 -12 -123 -25 -63 -9 39 4 171 16 163 5 -3 9 -48 9 -100z
m-1010 77 c0 -6 -4 -13 -10 -16 -5 -3 -10 1 -10 9 0 9 5 16 10 16 6 0 10 -4
10 -9z m2820 -25 c0 -2 -7 -7 -16 -10 -8 -3 -12 -2 -9 4 6 10 25 14 25 6z m75
-11 c-22 -8 -51 -13 -65 -13 -17 0 -10 4 20 13 59 17 97 17 45 0z m-190 -15
c3 -5 -1 -10 -9 -10 -28 0 -96 -32 -96 -45 0 -12 -44 -25 -105 -31 -28 -2 -29
-1 -11 12 11 8 23 14 28 14 4 0 8 5 8 11 0 16 -52 2 -106 -28 -25 -14 -47 -23
-50 -20 -9 8 97 64 156 82 30 9 60 18 65 20 24 8 114 4 120 -5z m500 0 c-3 -5
-2 -10 4 -10 5 0 13 5 16 10 3 6 12 10 18 10 7 0 4 -5 -7 -11 -15 -9 -16 -13
-5 -21 10 -6 7 -7 -10 -3 -13 4 -21 3 -18 -2 4 -5 -8 -7 -26 -4 l-32 5 30 7
30 7 -35 2 -35 3 35 7 c19 4 36 8 38 9 2 0 0 -3 -3 -9z m-3618 -36 c57 -33
109 -74 94 -74 -6 0 -19 8 -29 18 -13 13 -31 17 -62 16 l-45 -2 40 7 c41 8 40
11 -5 16 -78 9 -192 33 -203 44 -9 9 7 11 75 7 71 -4 95 -9 135 -32z m3862 32
c-2 -2 -22 -6 -44 -9 -28 -5 -34 -4 -20 3 19 8 73 14 64 6z m-4083 -19 c3 -3
-8 -4 -25 -3 -17 1 -33 5 -36 8 -3 3 8 5 25 3 17 -1 33 -5 36 -8z m1840 -35
c-9 -17 -21 -34 -27 -38 -13 -8 -11 -1 16 43 24 39 32 36 11 -5z m1820 29 c-4
-5 10 -7 31 -4 21 3 54 0 73 -5 29 -9 18 -10 -65 -10 -91 1 -97 3 -70 14 37
16 37 16 31 5z m-3589 -27 c-3 -3 -12 -4 -19 -1 -8 3 -5 6 6 6 11 1 17 -2 13
-5z m83 -14 c11 -7 5 -10 -23 -10 -23 0 -36 4 -32 10 8 13 35 13 55 0z m2348
-57 c-15 -2 -42 -2 -60 0 -18 2 -6 4 27 4 33 0 48 -2 33 -4z m152 -3 c-20 -13
-113 -13 -105 0 3 6 32 10 63 10 41 0 53 -3 42 -10z m-2131 -9 c10 -6 10 -10
1 -16 -16 -10 -82 4 -75 16 8 11 55 12 74 0z m299 2 c-32 -2 -86 -2 -120 0
-35 2 -9 3 57 3 66 0 94 -1 63 -3z m1919 1 c-3 -3 -12 -4 -19 -1 -8 3 -5 6 6
6 11 1 17 -2 13 -5z m-2507 -19 c0 -2 -10 -9 -22 -15 -22 -11 -22 -10 -4 4 21
17 26 19 26 11z m2670 -5 c0 -5 -11 -10 -25 -10 -14 0 -25 5 -25 10 0 6 11 10
25 10 14 0 25 -4 25 -10z m98 3 c-10 -2 -26 -2 -35 0 -10 3 -2 5 17 5 19 0 27
-2 18 -5z m-2731 -9 c-3 -3 -12 -4 -19 -1 -8 3 -5 6 6 6 11 1 17 -2 13 -5z
m1127 -11 c-4 -10 -9 -49 -11 -88 -4 -81 -24 -169 -53 -225 -26 -51 -25 -83 5
-148 14 -30 25 -62 25 -72 0 -11 5 -22 10 -25 6 -3 10 -23 10 -44 0 -45 16
-96 42 -133 15 -22 27 -28 56 -28 31 0 41 6 60 33 12 18 23 46 23 63 1 16 5 0
10 -35 12 -92 31 -99 158 -55 88 30 103 40 81 57 -9 7 -20 30 -25 52 -7 27
-16 41 -32 45 -20 5 -21 7 -7 45 13 36 31 111 81 340 9 44 17 113 18 154 l0
74 90 -2 c247 -4 527 -26 870 -67 l60 -7 -40 -8 c-22 -4 -60 -9 -85 -10 -38
-2 -35 -3 25 -10 39 -4 169 -14 290 -22 121 -9 236 -20 255 -24 33 -7 31 -8
-30 -14 -36 -4 -261 -10 -500 -14 -704 -13 -620 -20 482 -43 312 -7 422 -18
192 -20 -70 -1 -129 -4 -132 -7 -3 -3 62 -5 144 -5 101 0 144 -3 134 -10 -8
-6 -28 -7 -44 -4 -45 10 -1116 -7 -1110 -17 3 -5 71 -9 152 -10 81 0 201 -5
267 -10 66 -6 158 -13 205 -17 84 -7 84 -7 36 -14 -27 -5 -133 -9 -235 -9
-102 -1 -199 -5 -216 -9 -17 -4 79 -8 213 -9 190 -1 243 -4 240 -13 -3 -9 -58
-16 -189 -24 -125 -7 -158 -11 -103 -12 164 -4 201 -31 47 -34 l-98 -2 104 -5
c96 -6 104 -8 112 -28 l8 -23 -187 0 c-103 0 -293 -3 -422 -7 -205 -7 -223 -9
-140 -14 52 -4 244 -7 427 -8 315 -1 383 -6 383 -31 0 -4 26 -13 58 -21 56
-14 53 -14 -140 -17 -121 -1 -198 -6 -198 -12 0 -6 63 -10 163 -10 199 0 267
-7 267 -28 0 -13 -22 -14 -157 -9 -97 3 -135 2 -98 -3 33 -4 97 -8 142 -9 77
-1 163 -22 163 -40 0 -4 -13 -17 -30 -29 -28 -21 -40 -22 -232 -24 -223 -1
-166 -14 76 -17 l129 -1 -45 -48 c-25 -27 -49 -58 -52 -70 -10 -29 -14 -28
-92 13 -36 19 -77 35 -91 35 -14 0 -53 7 -87 16 -75 20 -136 14 -214 -20 -31
-14 -84 -30 -116 -37 -59 -11 -107 -35 -176 -89 -31 -24 -46 -28 -137 -33 -95
-5 -103 -4 -103 13 0 35 -12 50 -48 56 -21 3 -75 24 -122 46 -93 43 -243 79
-410 98 -98 12 -111 11 -184 -9 -107 -28 -126 -27 -162 10 -16 17 -44 39 -61
51 -18 11 -33 28 -33 38 0 24 -15 34 -79 55 -29 10 -86 36 -125 59 -39 24 -86
48 -105 54 -47 16 -208 15 -316 -3 -97 -16 -268 -19 -464 -8 -145 7 -141 20 7
22 58 1 108 4 112 6 4 2 173 5 376 6 203 1 378 5 389 9 19 8 -404 15 -690 12
-150 -2 -154 14 -5 25 50 3 93 10 96 15 3 4 60 9 127 10 l122 2 -117 3 c-96 3
-118 6 -118 18 0 12 22 15 123 16 148 2 97 13 -105 24 -78 4 -128 11 -128 17
0 7 26 9 78 4 147 -12 802 -20 802 -9 0 6 -138 12 -377 17 -357 7 -513 13
-522 22 -2 2 36 4 84 4 82 0 87 1 69 16 -18 14 -15 15 36 10 64 -5 350 15 350
25 0 4 -134 10 -297 13 -327 7 -443 14 -443 25 0 13 148 20 528 27 193 4 352
11 352 15 0 4 -8 8 -17 7 -89 -1 -690 28 -681 33 24 13 167 39 215 39 26 0 61
7 77 15 16 9 55 15 91 15 69 0 98 7 89 21 -3 5 2 9 10 9 9 0 94 9 189 19 94
11 242 25 327 31 85 6 166 13 180 14 14 2 42 4 64 5 33 1 37 -1 30 -16z m235
-43 c1 -34 -3 -80 -9 -103 -6 -23 -14 -76 -19 -117 -5 -41 -14 -115 -20 -165
-6 -49 -14 -117 -17 -150 l-6 -60 -18 35 c-20 38 -16 95 7 119 8 7 11 21 8 30
-19 46 -17 81 6 117 24 39 26 60 32 231 2 56 8 97 16 107 8 9 15 16 16 16 1 0
3 -27 4 -60z m1794 -17 c-7 -2 -21 -2 -30 0 -10 3 -4 5 12 5 17 0 24 -2 18 -5z
m130 0 c-13 -2 -35 -2 -50 0 -16 2 -5 4 22 4 28 0 40 -2 28 -4z m-4171 -39
c15 -8 35 -29 44 -47 9 -17 23 -40 32 -49 31 -37 -2 -16 -51 31 -29 27 -63 59
-77 71 l-25 21 25 -7 c14 -3 37 -13 52 -20z m104 7 c36 -16 73 -53 98 -98 13
-24 -3 -13 -63 40 -33 30 -75 59 -93 64 -29 10 -30 11 -8 12 14 0 44 -8 66
-18z m2324 -60 c-7 -11 -9 -3 -9 29 1 42 1 43 9 16 6 -17 5 -36 0 -45z m-2538
36 c33 5 41 1 85 -40 26 -25 45 -48 41 -52 -3 -4 -27 5 -52 19 -53 30 -68 32
-60 11 5 -12 -3 -15 -37 -15 -28 0 -39 3 -31 9 10 6 7 10 -12 15 -24 6 -66 42
-66 56 0 4 21 4 47 0 26 -4 64 -5 85 -3z m4841 -48 c-21 -33 -30 -38 -59 -37
-40 1 -43 10 -9 28 13 7 22 17 19 22 -8 12 -24 10 -24 -4 0 -7 -19 -24 -43
-37 l-42 -24 33 35 c17 19 32 38 32 43 0 6 27 10 59 11 l59 1 -25 -38z m-485
14 c-38 -2 -98 -2 -135 0 -38 2 -7 3 67 3 74 0 105 -1 68 -3z m341 -19 c-28
-30 -98 -68 -107 -59 -12 12 81 85 107 85 l24 0 -24 -26z m-173 9 c-7 -7 -87
-5 -95 3 -2 2 20 4 49 4 29 0 50 -3 46 -7z m-4034 -91 c10 -8 41 -21 70 -28
41 -9 46 -12 23 -13 -17 -1 -45 3 -62 8 -30 9 -31 8 -20 -10 6 -10 18 -19 25
-19 7 0 11 -4 7 -10 -3 -5 -15 -6 -27 -1 -11 4 -40 3 -64 -2 -30 -7 -53 -7
-76 1 l-33 11 35 -1 c54 -1 72 1 66 10 -7 12 -181 24 -331 24 -88 -1 -111 2
-85 8 42 10 311 16 357 8 18 -4 37 -9 43 -13 16 -10 24 23 9 41 -11 13 -9 14
17 8 16 -4 37 -13 46 -22z m3875 22 c-3 -3 -12 -4 -19 -1 -8 3 -5 6 6 6 11 1
17 -2 13 -5z m-4377 -24 c0 -5 -4 -10 -10 -10 -5 0 -10 5 -10 10 0 6 5 10 10
10 6 0 10 -4 10 -10z m4465 -35 c-46 -39 -178 -114 -188 -108 -5 3 6 15 24 26
19 11 63 40 98 64 71 47 116 60 66 18z m-2271 5 c14 -5 30 -19 37 -32 11 -21
10 -20 -20 5 -35 29 -51 33 -84 16 -21 -10 -21 -10 -3 5 23 18 35 20 70 6z
m2569 -30 c-15 -25 -23 -30 -58 -30 -22 0 -58 -3 -80 -5 -30 -4 -35 -3 -20 4
11 5 15 10 8 10 -20 2 -43 -11 -38 -20 3 -4 -11 -11 -32 -14 -21 -4 -54 -11
-73 -17 -78 -22 -100 -25 -100 -17 0 4 10 13 21 20 12 6 41 28 63 50 46 41 53
43 244 47 l83 2 -18 -30z m-4453 1 c-14 -4 -70 -8 -125 -8 l-100 0 75 7 c111
10 181 10 150 1z m3887 3 c-3 -3 -12 -4 -19 -1 -8 3 -5 6 6 6 11 1 17 -2 13
-5z m-3504 -11 c-24 -2 -62 -2 -85 0 -24 2 -5 4 42 4 47 0 66 -2 43 -4z m90 0
c-7 -2 -21 -2 -30 0 -10 3 -4 5 12 5 17 0 24 -2 18 -5z m3280 -20 c-18 -2 -48
-2 -65 0 -18 2 -4 4 32 4 36 0 50 -2 33 -4z m-136 -9 c-3 -3 -12 -4 -19 -1 -8
3 -5 6 6 6 11 1 17 -2 13 -5z m-3190 -10 c-3 -3 -12 -4 -19 -1 -8 3 -5 6 6 6
11 1 17 -2 13 -5z m3509 -19 c-11 -8 -31 -15 -45 -16 -24 0 -24 -1 -6 -9 18
-8 18 -9 -5 -10 -14 0 -61 -3 -105 -5 l-80 -4 45 13 c25 8 63 21 85 29 22 9
60 16 85 16 42 0 44 -1 26 -14z m462 -4 c-9 -15 -20 -18 -52 -14 -68 8 -74 17
-16 23 30 4 61 7 68 8 9 2 10 -2 0 -17z m-2225 -21 c-10 -17 -29 -38 -42 -47
-19 -12 -15 -4 14 30 47 55 53 58 28 17z m1779 -7 c-6 -2 -9 -10 -6 -15 4 -7
2 -8 -5 -4 -13 9 -5 26 12 25 9 0 8 -2 -1 -6z m73 -13 c3 -5 1 -10 -5 -10 -6
0 -8 -5 -4 -11 4 -7 -2 -7 -17 1 -34 18 -38 24 -10 15 16 -5 21 -4 17 4 -4 6
-3 11 3 11 5 0 13 -4 16 -10z m308 -7 c-13 -2 -35 -2 -50 0 -16 2 -5 4 22 4
28 0 40 -2 28 -4z m-245 -19 c17 -12 50 -16 132 -16 171 -2 123 -13 -75 -18
-13 0 -16 -3 -8 -8 16 -10 -225 -14 -262 -4 l-30 9 35 8 c19 4 41 12 49 19 12
9 13 7 7 -9 -6 -17 -5 -17 18 4 l24 23 21 -21 c18 -18 26 -19 58 -12 32 8 34
9 11 10 -29 1 -45 16 -26 24 20 8 22 8 46 -9z m-298 -4 c10 -6 2 -7 -25 -3
-49 7 -58 13 -19 13 16 0 36 -5 44 -10z m463 -57 c-13 -2 -35 -2 -50 0 -16 2
-5 4 22 4 28 0 40 -2 28 -4z m-2098 -13 c-3 -5 -12 -10 -18 -10 -7 0 -6 4 3
10 19 12 23 12 15 0z m-2070 -40 c13 -5 -18 -8 -85 -8 -67 0 -96 3 -80 8 33
11 140 11 165 0z m1086 -19 c42 -33 197 -111 221 -111 41 0 51 -14 27 -36 -20
-17 -22 -17 -16 -1 5 13 1 17 -15 17 -12 0 -29 7 -39 16 -20 18 -48 9 -30 -9
19 -19 12 -27 -24 -27 -19 0 -35 5 -35 11 0 7 -11 8 -30 4 -35 -8 -93 3 -85
15 3 5 -4 7 -17 5 -12 -3 -25 0 -28 5 -4 6 -37 6 -90 -1 -142 -19 -161 -18
-199 8 -20 13 -37 25 -38 26 -1 2 39 -1 90 -6 89 -8 229 -4 273 9 17 4 21 13
19 35 -1 16 -6 33 -10 37 -5 4 -5 1 -1 -5 8 -14 -19 -19 -27 -5 -3 4 -49 6
-102 6 -111 -2 -118 7 -12 16 125 12 143 11 168 -9z m-461 -1 c-8 -5 -51 -10
-95 -10 -44 0 -87 5 -95 10 -10 7 20 10 95 10 75 0 105 -3 95 -10z m-719 -22
c-30 -7 -47 -6 -54 1 -8 8 4 11 44 10 l54 -1 -44 -10z m409 1 c41 -9 155 -67
148 -74 -2 -2 -30 3 -63 11 -69 16 -105 18 -105 5 0 -11 152 -41 210 -41 71 0
155 -24 192 -55 40 -34 70 -76 64 -92 -3 -6 5 -14 17 -19 19 -6 16 -8 -15 -11
-21 -2 -49 2 -65 11 -20 11 -23 15 -10 16 27 0 20 33 -15 72 -31 34 -38 36
-129 47 -103 13 -154 8 -145 -15 3 -9 -2 -14 -14 -14 -11 0 -20 -4 -20 -10 0
-11 40 -13 66 -3 16 6 16 7 -1 13 -15 5 76 5 185 -1 14 -1 -11 -7 -55 -14 -97
-16 -515 -20 -515 -5 0 6 41 10 104 10 103 0 116 4 116 39 0 4 -65 6 -145 5
-80 0 -145 2 -145 6 0 4 8 7 18 7 147 -1 235 5 219 14 -12 7 -61 9 -141 5
-115 -6 -124 -5 -141 14 -10 11 -16 22 -14 23 2 2 62 14 132 26 71 13 141 27
155 31 37 11 60 11 112 -1z m250 -14 c-33 -19 -55 -19 -70 0 -11 13 -5 15 41
15 52 -1 53 -1 29 -15z m395 -4 c125 -11 35 -15 -230 -11 -43 0 -56 3 -45 10
17 11 143 11 275 1z m1080 -1 c-3 -5 -16 -10 -28 -9 -21 0 -21 1 -2 9 28 12
37 12 30 0z m1983 -77 c-21 -2 -55 -2 -75 0 -21 2 -4 4 37 4 41 0 58 -2 38 -4z
m-24 -42 c10 -15 -22 -21 -117 -21 -111 0 -197 -10 -197 -22 0 -5 58 -6 136
-2 102 5 135 4 130 -5 -5 -7 -50 -11 -134 -11 -133 0 -202 -7 -202 -21 0 -4
12 -9 28 -11 15 -2 -3 -6 -40 -9 l-67 -4 27 28 c15 16 49 41 77 57 49 29 52
30 202 30 83 0 154 -4 157 -9z m-2831 -38 c-7 -2 -19 -2 -25 0 -7 3 -2 5 12 5
14 0 19 -2 13 -5z m132 -33 c3 -5 -1 -10 -9 -10 -9 0 -16 5 -16 10 0 6 4 10 9
10 6 0 13 -4 16 -10z m-35 -4 c0 -2 -7 -6 -15 -10 -8 -3 -15 -1 -15 4 0 6 7
10 15 10 8 0 15 -2 15 -4z m-132 -13 c-10 -2 -26 -2 -35 0 -10 3 -2 5 17 5 19
0 27 -2 18 -5z m-583 -24 c27 -10 138 -99 132 -105 -5 -5 -425 15 -442 21 -5
2 59 4 143 4 83 1 152 5 152 10 0 14 -158 22 -250 12 l-85 -9 -45 36 -45 37
50 6 c63 8 363 -1 390 -12z m1467 -14 c10 -4 15 -11 12 -16 -3 -5 16 -9 43 -9
35 0 44 3 33 10 -12 8 -11 10 6 10 17 0 69 -28 54 -30 -3 0 -59 -5 -124 -10
-65 -5 -124 -14 -130 -20 -8 -8 6 -9 54 -4 42 4 81 2 110 -7 44 -12 45 -13 15
-18 -21 -4 -30 -12 -30 -26 0 -29 -35 -30 -87 -4 -37 19 -57 22 -143 21 -101
-1 -110 1 -42 13 36 6 53 25 22 25 -8 0 -15 5 -15 10 0 6 -38 10 -92 11 -134
1 -149 11 -47 33 46 10 89 20 94 22 17 6 249 -3 267 -11z m1848 11 c0 -11 -19
-15 -25 -6 -3 5 1 10 9 10 9 0 16 -2 16 -4z m-657 -31 c37 -8 89 -25 114 -37
38 -18 43 -23 30 -33 -8 -6 -50 -12 -93 -14 -68 -2 -83 -6 -105 -27 -14 -13
-36 -24 -50 -24 -22 0 -21 2 11 21 46 28 81 60 74 70 -2 4 -28 6 -57 3 -29 -2
-46 -2 -39 2 19 9 14 34 -7 34 -11 0 -39 -8 -63 -19 -46 -19 -158 -33 -158
-19 0 4 8 8 18 9 9 0 58 13 107 29 94 31 106 31 218 5z m522 18 c-65 -4 -178
-21 -202 -30 -16 -6 -16 -5 -5 10 14 17 64 23 187 23 46 0 53 -1 20 -3z m74
-37 c-2 -2 -24 -6 -49 -10 -53 -8 -47 4 7 14 36 6 52 5 42 -4z m-2334 -20 c58
-15 140 -50 148 -62 7 -13 -21 -49 -30 -39 -5 4 -2 10 5 12 6 3 12 8 12 13 0
10 -56 7 -67 -3 -4 -5 0 -5 9 -2 9 4 19 2 23 -4 15 -25 -102 1 -121 27 -10 14
-23 14 -110 4 -65 -7 -115 -8 -144 -2 -25 5 -49 10 -55 10 -22 3 32 19 66 19
19 1 40 6 46 12 28 28 141 36 218 15z m745 4 c13 -9 13 -10 0 -9 -8 0 -24 4
-35 9 l-20 9 20 0 c11 0 27 -4 35 -9z m-477 -7 c-7 -2 -21 -2 -30 0 -10 3 -4
5 12 5 17 0 24 -2 18 -5z m-56 -9 c-3 -3 -12 -4 -19 -1 -8 3 -5 6 6 6 11 1 17
-2 13 -5z m608 -30 l40 -13 -73 3 c-40 2 -79 9 -85 15 -16 16 68 13 118 -5z
m740 -4 c4 -6 -28 -10 -88 -10 -52 0 -116 -3 -143 -6 -27 -4 -46 -4 -42 0 19
21 261 35 273 16z m42 4 c-3 -3 -12 -4 -19 -1 -8 3 -5 6 6 6 11 1 17 -2 13 -5z
m-2022 -15 c-22 -4 -53 -8 -70 -7 l-30 0 30 8 c17 4 48 8 70 8 l40 0 -40 -9z
m870 -19 c3 -5 3 -10 -2 -10 -154 -6 -214 -6 -219 1 -2 4 35 10 83 12 48 1 98
4 110 5 12 1 25 -2 28 -8z m-894 -36 c24 -23 30 -24 172 -24 81 0 147 4 147 9
0 13 -57 19 -140 14 -41 -3 -91 -1 -110 4 -27 7 4 11 143 17 197 8 183 11 265
-65 26 -25 60 -53 76 -63 19 -12 25 -21 18 -28 -17 -17 -39 -2 -67 42 -25 39
-53 56 -41 24 3 -9 9 -27 12 -40 6 -21 3 -24 -24 -24 -16 0 -45 7 -63 16 l-34
15 32 -5 c37 -6 50 6 27 25 -10 8 -49 13 -117 13 l-102 0 88 3 c91 4 115 17
48 26 -59 8 -335 -4 -342 -15 -6 -10 -159 61 -159 74 0 10 50 16 100 11 29 -3
54 -13 71 -29z m2553 22 c-3 -8 3 -16 15 -19 12 -3 21 -1 21 4 0 5 -5 9 -12 9
-6 0 -9 2 -6 5 3 3 15 2 28 -3 22 -8 21 -9 -15 -30 -31 -19 -57 -23 -173 -28
-76 -3 -162 -6 -192 -5 l-55 0 40 -14 c22 -7 73 -14 114 -14 101 -1 86 -10
-21 -12 -47 -1 -91 -5 -98 -9 -14 -9 40 -30 77 -30 31 0 65 -18 58 -30 -4 -6
-109 -9 -260 -7 l-254 2 56 21 c62 23 54 34 -26 34 -26 0 -50 3 -53 6 -3 3
-130 6 -282 7 -214 2 -278 5 -288 15 -11 11 5 12 92 5 219 -17 535 3 620 39
15 6 93 10 198 9 193 -3 349 7 317 20 -11 4 -36 8 -55 9 l-35 1 25 14 c34 20
172 21 164 1z m-2740 -65 c60 -30 135 -104 111 -109 -9 -2 -22 3 -28 11 -13
17 -82 57 -97 57 -18 0 -10 -15 16 -31 25 -15 20 -16 -103 -22 -76 -4 -132 -2
-137 3 -7 7 34 10 109 10 153 0 142 17 -19 29 -64 5 -120 12 -123 15 -4 3 7 6
23 6 48 0 104 12 104 22 0 6 -53 8 -132 6 -116 -3 -136 -1 -158 15 -24 18 -20
18 180 15 192 -3 208 -5 254 -27z m792 -6 c27 -13 65 -38 84 -54 32 -28 33
-30 13 -31 -28 0 -129 53 -163 86 -23 23 -23 24 -4 24 11 0 42 -11 70 -25z
m1009 7 c69 -12 -200 -20 -290 -8 -67 9 -75 12 -50 18 34 8 279 1 340 -10z
m-736 -11 c9 -6 -4 -10 -40 -13 -59 -5 -84 1 -53 13 26 11 76 10 93 0z m279 2
c-15 -2 -42 -2 -60 0 -18 2 -6 4 27 4 33 0 48 -2 33 -4z m-1611 -49 c-3 -3
-12 -4 -19 -1 -8 3 -5 6 6 6 11 1 17 -2 13 -5z m1286 -1 c-7 -2 -19 -2 -25 0
-7 3 -2 5 12 5 14 0 19 -2 13 -5z m297 -12 c64 -18 205 -73 215 -83 3 -3 -16
-2 -42 2 -32 5 -50 4 -55 -4 -12 -19 4 -25 81 -32 40 -4 107 -17 149 -29 l75
-22 -219 -6 c-120 -4 -257 -6 -304 -6 -79 2 -81 2 -35 9 28 5 82 9 120 11 l70
2 -50 7 c-27 4 -41 8 -30 10 11 1 24 2 29 1 5 -1 16 1 25 5 10 5 -6 10 -44 14
-33 4 -64 3 -70 -2 -13 -11 -85 -10 -85 2 0 6 21 11 48 12 79 2 117 5 127 7
10 3 -52 22 -70 22 -22 0 -178 -10 -334 -20 -90 -6 -166 -10 -168 -7 -2 2 36
9 84 16 48 7 104 20 123 30 19 10 58 25 85 33 28 8 66 22 85 31 47 21 112 20
190 -3z m1268 -8 c-10 -2 -26 -2 -35 0 -10 3 -2 5 17 5 19 0 27 -2 18 -5z
m-2357 -12 c-8 -5 -20 -7 -28 -4 -21 8 -15 13 15 13 20 0 23 -3 13 -9z m1744
-5 c-85 -12 -394 -13 -433 -1 -24 7 42 10 230 10 184 0 244 -3 203 -9z m22
-32 c-3 -3 -12 -4 -19 -1 -8 3 -5 6 6 6 11 1 17 -2 13 -5z m-234 -31 c-35 -2
-91 -2 -125 0 -35 2 -7 3 62 3 69 0 97 -1 63 -3z m-1408 -24 c-27 -4 -120 -10
-205 -13 -118 -4 -141 -3 -95 4 33 6 64 12 70 14 5 2 71 4 145 4 103 -1 123
-3 85 -9z m1983 4 c-21 -2 -57 -2 -80 0 -24 2 -7 4 37 4 44 0 63 -2 43 -4z
m-1498 -72 l45 -7 -69 -9 c-41 -4 -119 -3 -190 3 -67 6 -132 9 -146 7 -58 -9
-284 -13 -269 -5 46 26 488 34 629 11z m1090 -20 l25 -7 -23 -8 c-12 -4 -64
-14 -115 -22 -51 -8 -108 -17 -127 -20 -69 -10 -4 16 76 31 43 8 82 19 88 25
11 11 39 12 76 1z m-1362 -8 c-21 -2 -55 -2 -75 0 -21 2 -4 4 37 4 41 0 58 -2
38 -4z m-119 -7 c-2 -2 -47 -6 -99 -9 -56 -3 -83 -2 -65 3 30 8 172 13 164 6z
m725 -5 c3 -4 -41 -11 -97 -14 -56 -4 -133 -9 -172 -11 l-70 -5 55 10 c161 28
275 36 284 20z m179 2 c-24 -2 -62 -2 -85 0 -24 2 -5 4 42 4 47 0 66 -2 43 -4z
m689 -5 l53 -11 -80 -18 c-89 -20 -154 -24 -139 -10 5 5 32 19 59 29 28 11 51
20 52 21 1 1 26 -4 55 -11z m-1267 -28 c7 -12 -238 -13 -305 -1 -31 6 7 9 127
10 105 1 174 -3 178 -9z m698 -19 c9 -1 17 -6 17 -12 0 -8 -25 -10 -85 -7 -47
3 -87 2 -90 -2 -3 -4 20 -14 51 -21 30 -8 56 -18 57 -24 3 -16 -177 -24 -323
-13 -74 5 -137 11 -139 14 -2 2 36 4 85 4 99 0 130 10 89 28 -13 6 -32 9 -40
6 -9 -4 -50 -3 -93 1 l-77 8 45 9 c75 14 289 23 390 17 52 -4 103 -7 113 -8z
m377 -1 c-9 -4 -31 -5 -50 0 -34 8 -33 8 15 9 34 0 45 -3 35 -9z m-1130 -19
c64 -7 64 -7 35 -20 -24 -10 -46 -10 -112 0 -147 22 -87 37 77 20z m807 3 c-3
-3 -12 -4 -19 -1 -8 3 -5 6 6 6 11 1 17 -2 13 -5z m-32 -44 c3 -5 -1 -10 -9
-10 -9 0 -16 5 -16 10 0 6 4 10 9 10 6 0 13 -4 16 -10z"/>
<path d="M1670 4999 c-18 -33 -6 -42 13 -9 10 16 14 30 8 30 -6 0 -15 -9 -21
-21z"/>
<path d="M1705 4928 c-10 -24 -2 -38 12 -23 6 7 8 18 3 26 -7 11 -10 10 -15
-3z"/>
<path d="M1736 4627 c5 -37 4 -38 -16 -27 -25 13 -50 7 -50 -12 0 -7 -14 -48
-31 -92 -46 -118 -31 -115 53 12 32 48 45 61 60 57 23 -8 23 9 -2 60 l-20 40
6 -38z"/>
<path d="M2200 4577 c0 -30 80 -170 127 -223 42 -47 43 -47 27 -14 -21 44
-118 209 -138 235 -14 19 -15 19 -16 2z"/>
<path d="M1320 4530 c-19 -16 -30 -29 -23 -30 21 0 59 21 71 41 19 30 -8 24
-48 -11z"/>
<path d="M2000 4540 c0 -25 71 -148 104 -179 20 -19 36 -30 36 -24 0 7 -4 14
-8 17 -4 3 -21 31 -37 63 -41 82 -74 133 -85 133 -6 0 -10 -5 -10 -10z"/>
<path d="M2210 4500 c12 -16 24 -30 26 -30 3 0 -4 14 -16 30 -12 17 -24 30
-26 30 -3 0 4 -13 16 -30z"/>
<path d="M1266 4493 c-3 -3 2 -12 10 -21 14 -14 13 -18 -15 -39 -17 -14 -29
-28 -26 -32 2 -5 29 15 59 43 30 28 53 52 51 54 -2 3 -11 -3 -20 -12 -17 -17
-40 -22 -31 -7 7 10 -19 23 -28 14z"/>
<path d="M1235 4460 c-4 -6 -22 -17 -42 -25 -30 -13 -34 -17 -23 -30 7 -9 15
-13 19 -10 3 3 -1 11 -9 16 -11 8 -10 9 8 4 15 -4 24 -1 28 9 3 9 12 16 20 16
8 0 14 7 14 15 0 17 -6 19 -15 5z"/>
<path d="M1150 4350 c0 -5 7 -10 16 -10 8 0 12 5 9 10 -3 6 -10 10 -16 10 -5
0 -9 -4 -9 -10z"/>
<path d="M1078 4333 c7 -3 16 -2 19 1 4 3 -2 6 -13 5 -11 0 -14 -3 -6 -6z"/>
<path d="M1098 4311 c-6 -10 -18 -17 -25 -14 -8 3 -13 -3 -13 -16 0 -19 2 -20
20 -9 11 7 20 16 20 21 0 4 4 6 9 2 5 -3 13 0 17 6 5 8 3 9 -6 4 -10 -6 -12
-4 -7 8 9 23 0 21 -15 -2z"/>
<path d="M2574 4285 c6 -25 14 -45 17 -45 8 0 -9 71 -20 83 -4 4 -3 -13 3 -38z"/>
<path d="M2645 4260 c3 -5 8 -10 11 -10 2 0 4 5 4 10 0 6 -5 10 -11 10 -5 0
-7 -4 -4 -10z"/>
<path d="M5471 4694 c0 -11 3 -14 6 -6 3 7 2 16 -1 19 -3 4 -6 -2 -5 -13z"/>
<path d="M5390 4580 c-6 -11 -8 -20 -6 -20 3 0 10 9 16 20 6 11 8 20 6 20 -3
0 -10 -9 -16 -20z"/>
<path d="M5860 4696 c0 -8 -7 -17 -16 -20 -13 -5 -12 -11 10 -36 14 -17 28
-46 32 -65 7 -38 19 -52 29 -34 8 12 -36 169 -47 169 -5 0 -8 -6 -8 -14z"/>
<path d="M5925 4694 c5 -11 8 -30 8 -44 0 -14 1 -20 4 -13 3 8 15 5 39 -9 19
-11 34 -17 34 -14 0 3 -21 26 -47 52 -25 26 -42 38 -38 28z"/>
<path d="M5055 4254 c-24 -37 -13 -40 14 -4 12 17 17 30 12 30 -5 0 -16 -12
-26 -26z"/>
<path d="M5192 4100 c-18 -29 -15 -38 4 -12 9 13 14 25 12 27 -2 2 -9 -5 -16
-15z"/>
<path d="M4689 4043 c-13 -16 -12 -17 4 -4 16 13 21 21 13 21 -2 0 -10 -8 -17
-17z"/>
<path d="M5150 4040 c-6 -11 -8 -20 -6 -20 3 0 10 9 16 20 6 11 8 20 6 20 -3
0 -10 -9 -16 -20z"/>
<path d="M4610 3982 c-61 -57 -63 -68 -4 -22 22 16 44 33 49 37 6 5 19 10 30
11 11 2 22 6 25 9 3 3 -5 4 -17 1 -12 -3 -24 -1 -25 4 -2 6 -28 -12 -58 -40z"/>
<path d="M4604 3655 c-10 -8 -14 -14 -9 -15 15 0 40 18 34 24 -3 3 -14 -1 -25
-9z"/>
<path d="M4403 3619 c-35 -22 -46 -37 -15 -20 22 13 58 40 52 41 -3 0 -20 -10
-37 -21z"/>
<path d="M5132 4530 c0 -19 2 -27 5 -17 2 9 2 25 0 35 -3 9 -5 1 -5 -18z"/>
<path d="M5785 4160 c-13 -6 -15 -9 -5 -9 8 0 22 4 30 9 18 12 2 12 -25 0z"/>
<path d="M5775 4100 c3 -5 8 -10 11 -10 2 0 4 5 4 10 0 6 -5 10 -11 10 -5 0
-7 -4 -4 -10z"/>
<path d="M6010 4110 c0 -5 5 -10 10 -10 6 0 10 5 10 10 0 6 -4 10 -10 10 -5 0
-10 -4 -10 -10z"/>
<path d="M6530 4061 c0 -5 7 -12 16 -15 14 -5 15 -4 4 9 -14 17 -20 19 -20 6z"/>
<path d="M6510 3861 c0 -5 5 -13 10 -16 6 -3 10 -2 10 4 0 5 -4 13 -10 16 -5
3 -10 2 -10 -4z"/>
<path d="M5880 3930 c0 -5 5 -10 10 -10 6 0 10 5 10 10 0 6 -4 10 -10 10 -5 0
-10 -4 -10 -10z"/>
<path d="M5792 3700 c0 -14 2 -19 5 -12 2 6 2 18 0 25 -3 6 -5 1 -5 -13z"/>
<path d="M2378 2603 c7 -3 16 -2 19 1 4 3 -2 6 -13 5 -11 0 -14 -3 -6 -6z"/>
<path d="M3025 2330 c11 -5 56 -8 100 -8 75 1 77 1 30 8 -71 11 -156 11 -130
0z"/>
<path d="M6155 2130 c-17 -7 -15 -9 13 -9 17 -1 32 4 32 9 0 12 -17 12 -45 0z"/>
<path d="M3070 1780 c-13 -8 -12 -10 3 -10 9 0 17 5 17 10 0 12 -1 12 -20 0z"/>
<path d="M3020 1754 c-24 -13 -24 -14 -4 -14 12 0 24 7 28 15 3 8 4 15 3 14
-1 -1 -13 -7 -27 -15z"/>
<path d="M1901 1786 c10 -9 199 -15 199 -6 0 6 -42 10 -102 10 -56 0 -99 -2
-97 -4z"/>
<path d="M2208 1572 c20 -13 215 -15 207 -3 -4 7 -48 11 -113 11 -59 0 -101
-4 -94 -8z"/>
<path d="M5086 6731 c-3 -5 0 -14 8 -20 10 -9 15 -8 19 3 9 22 -15 37 -27 17z"/>
<path d="M2576 6711 c17 -17 89 -17 79 -1 -3 6 -25 10 -48 10 -25 0 -37 -4
-31 -9z"/>
<path d="M2812 6713 c-6 -2 -10 -8 -7 -13 3 -5 -13 -11 -35 -15 -22 -4 -43
-11 -46 -17 -11 -17 4 -20 28 -5 12 8 35 17 49 21 14 3 26 12 26 21 0 8 -1 15
-1 14 -1 0 -7 -3 -14 -6z"/>
<path d="M4885 6710 c3 -5 14 -10 23 -10 15 0 15 2 2 10 -20 13 -33 13 -25 0z"/>
<path d="M5757 6701 c-4 -17 -3 -21 5 -13 5 5 8 16 6 23 -3 8 -7 3 -11 -10z"/>
<path d="M4958 6703 c6 -2 12 -11 12 -19 0 -9 5 -12 10 -9 13 8 -6 35 -24 34
-7 0 -6 -2 2 -6z"/>
<path d="M5010 6700 c0 -5 5 -10 11 -10 5 0 7 5 4 10 -3 6 -8 10 -11 10 -2 0
-4 -4 -4 -10z"/>
<path d="M5006 6671 c-3 -5 5 -11 19 -13 20 -4 23 -3 14 8 -13 16 -25 18 -33
5z"/>
<path d="M5127 6663 c-14 -13 -6 -23 18 -23 28 0 34 15 9 24 -19 7 -19 7 -27
-1z"/>
<path d="M2613 6621 c-1 -14 3 -17 18 -14 15 4 17 8 8 19 -16 19 -24 17 -26
-5z"/>
<path d="M2658 6633 c7 -3 16 -2 19 1 4 3 -2 6 -13 5 -11 0 -14 -3 -6 -6z"/>
<path d="M5180 6630 c-13 -8 -12 -10 3 -10 9 0 17 5 17 10 0 12 -1 12 -20 0z"/>
<path d="M2690 6600 c-8 -5 -10 -10 -5 -10 6 0 17 5 25 10 8 5 11 10 5 10 -5
0 -17 -5 -25 -10z"/>
<path d="M5140 6575 c14 -8 30 -14 35 -14 6 0 -1 6 -15 14 -14 8 -29 14 -35
14 -5 0 1 -6 15 -14z"/>
<path d="M2250 6550 c0 -5 5 -10 10 -10 6 0 10 5 10 10 0 6 -4 10 -10 10 -5 0
-10 -4 -10 -10z"/>
<path d="M5410 6550 c0 -5 5 -10 10 -10 6 0 10 5 10 10 0 6 -4 10 -10 10 -5 0
-10 -4 -10 -10z"/>
<path d="M2470 6540 c0 -13 11 -13 30 0 12 8 11 10 -7 10 -13 0 -23 -4 -23
-10z"/>
<path d="M5315 6540 c27 -12 43 -12 25 0 -8 5 -22 9 -30 9 -10 0 -8 -3 5 -9z"/>
<path d="M2425 6526 c-22 -23 -26 -36 -11 -30 9 3 16 10 16 14 0 5 8 10 18 12
14 3 14 5 2 10 -8 3 -20 0 -25 -6z"/>
<path d="M2525 6520 c-3 -6 1 -7 9 -4 18 7 21 14 7 14 -6 0 -13 -4 -16 -10z"/>
<path d="M2353 6485 c5 -11 0 -13 -21 -9 -31 6 -82 -10 -82 -26 0 -6 11 -8 28
-4 24 7 26 6 13 -9 -19 -24 -8 -21 42 11 39 24 52 52 25 52 -6 0 -8 -7 -5 -15z"/>
<path d="M5350 6476 c0 -3 9 -10 20 -16 11 -6 20 -8 20 -6 0 3 -9 10 -20 16
-11 6 -20 8 -20 6z"/>
<path d="M5502 6454 c-7 -8 -8 -14 -3 -14 10 0 25 19 20 25 -2 1 -10 -3 -17
-11z"/>
<path d="M5585 6380 c3 -5 8 -10 11 -10 2 0 4 5 4 10 0 6 -5 10 -11 10 -5 0
-7 -4 -4 -10z"/>
<path d="M2142 6339 c-20 -17 -40 -28 -49 -25 -10 4 -13 0 -11 -12 2 -9 10
-17 18 -17 8 0 14 5 13 11 -1 7 10 17 25 23 15 6 33 20 40 31 18 29 2 24 -36
-11z"/>
<path d="M5675 6350 c3 -6 2 -10 -4 -10 -5 0 -9 -8 -8 -18 1 -18 27 -27 27
-10 0 4 7 8 16 8 22 0 12 21 -15 31 -14 6 -20 5 -16 -1z"/>
<path d="M5640 6296 c0 -2 8 -10 18 -17 15 -13 16 -12 3 4 -13 16 -21 21 -21
13z"/>
<path d="M2099 6253 c-13 -16 -12 -17 4 -4 9 7 17 15 17 17 0 8 -8 3 -21 -13z"/>
<path d="M5740 6260 c-9 -6 -10 -10 -3 -10 6 0 15 5 18 10 8 12 4 12 -15 0z"/>
<path d="M5725 6230 c10 -11 20 -20 23 -20 3 0 -3 9 -13 20 -10 11 -20 20 -23
20 -3 0 3 -9 13 -20z"/>
<path d="M1985 6220 c4 -6 11 -8 16 -5 14 9 11 15 -7 15 -8 0 -12 -5 -9 -10z"/>
<path d="M5775 6190 c10 -11 20 -20 23 -20 3 0 -3 9 -13 20 -10 11 -20 20 -23
20 -3 0 3 -9 13 -20z"/>
<path d="M1926 6174 c-6 -16 2 -18 22 -5 11 7 11 9 -1 14 -9 3 -18 -1 -21 -9z"/>
<path d="M1870 6164 c0 -8 5 -12 10 -9 6 4 8 11 5 16 -9 14 -15 11 -15 -7z"/>
<path d="M1974 6158 l-19 -23 23 19 c21 18 27 26 19 26 -2 0 -12 -10 -23 -22z"/>
<path d="M5825 6150 c10 -11 20 -20 23 -20 3 0 -3 9 -13 20 -10 11 -20 20 -23
20 -3 0 3 -9 13 -20z"/>
<path d="M1810 6149 c0 -5 5 -7 10 -4 6 3 10 8 10 11 0 2 -4 4 -10 4 -5 0 -10
-5 -10 -11z"/>
<path d="M5887 6147 c-3 -7 3 -13 13 -13 10 0 16 6 13 13 -3 7 -9 13 -13 13
-4 0 -10 -6 -13 -13z"/>
<path d="M1914 6108 l-29 -33 33 29 c17 17 32 31 32 33 0 8 -8 1 -36 -29z"/>
<path d="M1149 6103 c-13 -16 -12 -17 3 -4 10 7 25 11 33 7 9 -3 13 -2 10 4
-10 15 -31 12 -46 -7z"/>
<path d="M5870 6117 c0 -2 15 -16 33 -33 l32 -29 -29 33 c-28 30 -36 37 -36
29z"/>
<path d="M1830 6092 c0 -6 -9 -14 -20 -17 -11 -4 -18 -11 -15 -16 4 -5 16 0
27 11 12 11 18 23 15 27 -4 3 -7 1 -7 -5z"/>
<path d="M1157 6068 c2 -5 10 -8 18 -8 8 0 16 3 18 8 3 4 -5 7 -18 7 -13 0
-21 -3 -18 -7z"/>
<path d="M1760 6070 c0 -17 17 -47 23 -40 2 3 -2 16 -10 30 -7 14 -13 18 -13
10z"/>
<path d="M1735 5940 c-66 -66 -117 -120 -115 -120 3 0 59 54 125 120 66 66
117 120 115 120 -3 0 -59 -54 -125 -120z"/>
<path d="M1726 6042 c-3 -5 1 -15 9 -22 16 -14 20 -3 6 19 -5 8 -11 9 -15 3z"/>
<path d="M6055 5940 c49 -49 92 -90 95 -90 2 0 -36 41 -85 90 -49 50 -92 90
-95 90 -2 0 36 -40 85 -90z"/>
<path d="M1617 5913 c-4 -3 -7 -11 -7 -17 0 -6 5 -5 12 2 6 6 9 14 7 17 -3 3
-9 2 -12 -2z"/>
<path d="M6154 5901 c0 -11 5 -17 13 -14 10 4 11 9 2 19 -15 18 -15 18 -15 -5z"/>
<path d="M1590 5858 c0 -10 2 -18 5 -18 2 0 9 8 14 18 8 14 6 19 -5 19 -7 0
-14 -9 -14 -19z"/>
<path d="M6190 5859 c0 -5 5 -7 10 -4 6 3 10 8 10 11 0 2 -4 4 -10 4 -5 0 -10
-5 -10 -11z"/>
<path d="M1520 5852 c0 -16 28 -47 36 -39 4 4 -2 16 -14 27 -12 12 -22 17 -22
12z"/>
<path d="M6226 5827 c3 -10 9 -15 12 -12 3 3 0 11 -7 18 -10 9 -11 8 -5 -6z"/>
<path d="M6180 5805 c13 -14 26 -25 28 -25 3 0 -5 11 -18 25 -13 14 -26 25
-28 25 -3 0 5 -11 18 -25z"/>
<path d="M1511 5804 c0 -11 3 -14 6 -6 3 7 2 16 -1 19 -3 4 -6 -2 -5 -13z"/>
<path d="M1574 5768 l-19 -23 23 19 c12 11 22 21 22 23 0 8 -8 2 -26 -19z"/>
<path d="M1496 5759 c2 -4 -2 -9 -8 -12 -7 -2 -10 -8 -6 -12 4 -4 16 1 27 12
19 18 19 19 1 19 -10 0 -17 -3 -14 -7z"/>
<path d="M6276 5748 c3 -4 11 -5 19 -1 11 4 14 0 9 -13 -6 -15 -4 -16 6 -7 16
15 5 32 -20 30 -10 -1 -17 -5 -14 -9z"/>
<path d="M6250 5725 c13 -14 26 -25 28 -25 3 0 -5 11 -18 25 -13 14 -26 25
-28 25 -3 0 5 -11 18 -25z"/>
<path d="M1524 5708 l-19 -23 23 19 c21 18 27 26 19 26 -2 0 -12 -10 -23 -22z"/>
<path d="M1450 5686 c0 -9 -4 -14 -10 -11 -5 3 -10 1 -10 -4 0 -6 5 -11 10
-11 13 0 25 28 16 37 -3 4 -6 -1 -6 -11z"/>
<path d="M6280 5686 c0 -2 8 -10 18 -17 15 -13 16 -12 3 4 -13 16 -21 21 -21
13z"/>
<path d="M1484 5658 l-19 -23 23 19 c21 18 27 26 19 26 -2 0 -12 -10 -23 -22z"/>
<path d="M6320 5636 c0 -2 8 -10 18 -17 15 -13 16 -12 3 4 -13 16 -21 21 -21
13z"/>
<path d="M1359 5587 c0 -7 -2 -22 -3 -34 -2 -18 0 -20 11 -11 11 9 12 13 1 19
-12 8 -5 13 14 11 3 -1 8 4 11 11 3 7 -3 14 -14 14 -10 1 -19 -4 -20 -10z"/>
<path d="M6360 5586 c0 -2 8 -10 18 -17 15 -13 16 -12 3 4 -13 16 -21 21 -21
13z"/>
<path d="M6462 5550 c0 -14 2 -19 5 -12 2 6 2 18 0 25 -3 6 -5 1 -5 -13z"/>
<path d="M1399 5543 c-13 -16 -12 -17 4 -4 9 7 17 15 17 17 0 8 -8 3 -21 -13z"/>
<path d="M1290 5508 c0 -5 4 -7 9 -4 5 4 11 2 13 -3 1 -5 8 -3 15 4 9 10 6 13
-13 13 -13 0 -24 -5 -24 -10z"/>
<path d="M7177 5434 c-3 -5 1 -15 9 -22 16 -14 18 -5 5 17 -5 7 -11 9 -14 5z"/>
<path d="M7076 5403 c-11 -11 -6 -23 9 -23 8 0 15 4 15 9 0 13 -16 22 -24 14z"/>
<path d="M1207 5361 c-22 -44 -21 -46 4 -22 11 10 19 27 17 38 -3 14 -7 11
-21 -16z"/>
<path d="M7123 5355 c-3 -9 -3 -18 -1 -21 3 -3 8 4 11 16 6 23 -1 27 -10 5z"/>
<path d="M1206 5315 c-9 -26 -7 -32 5 -12 6 10 9 21 6 23 -2 3 -7 -2 -11 -11z"/>
<path d="M7148 5313 c7 -3 16 -2 19 1 4 3 -2 6 -13 5 -11 0 -14 -3 -6 -6z"/>
<path d="M7058 5303 c-31 -8 -19 -23 18 -23 31 0 35 2 24 15 -7 8 -15 14 -19
14 -3 -1 -14 -3 -23 -6z"/>
<path d="M7181 5287 c-13 -21 -12 -21 5 -5 10 10 16 20 13 22 -3 3 -11 -5 -18
-17z"/>
<path d="M7130 5290 c0 -5 5 -10 11 -10 5 0 7 5 4 10 -3 6 -8 10 -11 10 -2 0
-4 -4 -4 -10z"/>
<path d="M1172 5286 c4 -5 4 -14 -2 -20 -5 -7 -5 -17 0 -26 8 -13 10 -12 10 2
0 9 5 18 11 20 7 2 3 10 -7 18 -11 8 -16 10 -12 6z"/>
<path d="M6610 5270 c0 -5 5 -10 10 -10 6 0 10 5 10 10 0 6 -4 10 -10 10 -5 0
-10 -4 -10 -10z"/>
<path d="M772 5242 c-11 -25 -11 -25 4 -10 9 9 15 21 13 27 -2 6 -10 -2 -17
-17z"/>
<path d="M1211 5243 c-10 -26 -10 -27 4 -9 8 11 15 23 15 28 0 15 -7 8 -19
-19z"/>
<path d="M1156 5203 c-6 -14 -5 -15 5 -6 7 7 10 15 7 18 -3 3 -9 -2 -12 -12z"/>
<path d="M6668 5193 c6 -2 12 -11 12 -19 0 -8 5 -14 10 -14 6 0 10 4 10 8 0
12 -22 32 -34 31 -6 0 -5 -3 2 -6z"/>
<path d="M680 5146 c0 -17 14 -29 23 -20 8 8 -3 34 -14 34 -5 0 -9 -6 -9 -14z"/>
<path d="M6636 5137 c3 -10 9 -15 12 -12 3 3 0 11 -7 18 -10 9 -11 8 -5 -6z"/>
<path d="M960 5100 c0 -11 5 -20 10 -20 6 0 10 9 10 20 0 11 -4 20 -10 20 -5
0 -10 -9 -10 -20z"/>
<path d="M1061 5093 c0 -25 1 -26 9 -8 12 27 12 35 0 35 -5 0 -10 -12 -9 -27z"/>
<path d="M1043 5035 c0 -8 4 -12 9 -9 4 3 8 9 8 15 0 5 -4 9 -8 9 -5 0 -9 -7
-9 -15z"/>
<path d="M6780 4946 c0 -9 5 -16 10 -16 6 0 10 4 10 9 0 6 -4 13 -10 16 -5 3
-10 -1 -10 -9z"/>
<path d="M963 4875 c0 -7 6 -11 14 -8 7 3 13 6 13 8 0 2 -6 5 -13 8 -8 3 -14
-1 -14 -8z"/>
<path d="M6833 4770 c0 -23 3 -28 9 -16 5 9 5 23 0 32 -6 12 -9 7 -9 -16z"/>
<path d="M6851 4724 c0 -11 3 -14 6 -6 3 7 2 16 -1 19 -3 4 -6 -2 -5 -13z"/>
<path d="M886 4609 c-8 -42 0 -50 9 -9 4 17 5 34 2 36 -2 3 -7 -10 -11 -27z"/>
<path d="M941 4574 c0 -11 3 -14 6 -6 3 7 2 16 -1 19 -3 4 -6 -2 -5 -13z"/>
<path d="M7120 4550 c0 -5 5 -10 11 -10 5 0 7 5 4 10 -3 6 -8 10 -11 10 -2 0
-4 -4 -4 -10z"/>
<path d="M7180 4526 c0 -2 8 -10 18 -17 15 -13 16 -12 3 4 -13 16 -21 21 -21
13z"/>
<path d="M6921 4464 c0 -11 3 -14 6 -6 3 7 2 16 -1 19 -3 4 -6 -2 -5 -13z"/>
<path d="M6941 4443 c0 -21 4 -47 9 -58 6 -14 8 -4 7 33 -1 30 -5 56 -9 58 -4
3 -8 -12 -7 -33z"/>
<path d="M901 4404 c0 -11 3 -14 6 -6 3 7 2 16 -1 19 -3 4 -6 -2 -5 -13z"/>
<path d="M7160 4410 c0 -5 5 -10 10 -10 6 0 10 5 10 10 0 6 -4 10 -10 10 -5 0
-10 -4 -10 -10z"/>
<path d="M836 4329 c-4 -23 -3 -46 2 -51 6 -6 12 8 16 33 4 23 3 46 -2 51 -6
6 -12 -8 -16 -33z"/>
<path d="M6901 4334 c0 -11 3 -14 6 -6 3 7 2 16 -1 19 -3 4 -6 -2 -5 -13z"/>
<path d="M881 4304 c0 -11 3 -14 6 -6 3 7 2 16 -1 19 -3 4 -6 -2 -5 -13z"/>
<path d="M380 4305 c0 -7 30 -13 34 -7 3 4 -4 9 -15 9 -10 1 -19 0 -19 -2z"/>
<path d="M6911 4274 c0 -11 3 -14 6 -6 3 7 2 16 -1 19 -3 4 -6 -2 -5 -13z"/>
<path d="M430 4256 c0 -8 4 -17 9 -20 5 -4 7 3 4 14 -6 23 -13 26 -13 6z"/>
<path d="M871 4244 c0 -11 3 -14 6 -6 3 7 2 16 -1 19 -3 4 -6 -2 -5 -13z"/>
<path d="M823 4215 c0 -22 2 -30 4 -17 2 12 2 30 0 40 -3 9 -5 -1 -4 -23z"/>
<path d="M386 4233 c6 -4 14 -15 17 -23 5 -11 6 -9 4 4 -1 11 -9 21 -17 23
-10 3 -11 2 -4 -4z"/>
<path d="M6921 4204 c0 -11 3 -14 6 -6 3 7 2 16 -1 19 -3 4 -6 -2 -5 -13z"/>
<path d="M432 4181 c-11 -6 -9 -9 6 -13 15 -4 19 -2 15 8 -6 16 -4 16 -21 5z"/>
<path d="M861 4174 c0 -11 3 -14 6 -6 3 7 2 16 -1 19 -3 4 -6 -2 -5 -13z"/>
<path d="M806 4161 c-4 -5 -2 -20 3 -33 9 -21 9 -20 8 9 -2 36 -3 38 -11 24z"/>
<path d="M6976 4152 c-7 -12 5 -81 15 -88 11 -6 22 37 17 67 -3 24 -22 36 -32
21z"/>
<path d="M6932 4130 c0 -14 2 -19 5 -12 2 6 2 18 0 25 -3 6 -5 1 -5 -13z"/>
<path d="M851 4094 c0 -11 3 -14 6 -6 3 7 2 16 -1 19 -3 4 -6 -2 -5 -13z"/>
<path d="M6943 4000 c0 -25 2 -35 4 -22 2 12 2 32 0 45 -2 12 -4 2 -4 -23z"/>
<path d="M593 4014 c21 -7 22 -21 2 -27 -11 -4 -10 -4 2 -3 25 2 23 30 -2 33
-16 1 -16 1 -2 -3z"/>
<path d="M843 3980 c0 -25 2 -35 4 -22 2 12 2 32 0 45 -2 12 -4 2 -4 -23z"/>
<path d="M7177 3873 c-9 -14 9 -27 23 -18 6 3 10 12 10 18 0 8 -3 7 -9 -2 -7
-11 -9 -11 -13 0 -3 9 -6 10 -11 2z"/>
<path d="M7427 3782 c4 -16 -1 -24 -18 -32 -17 -7 -19 -9 -5 -7 26 3 44 33 29
48 -9 9 -11 7 -6 -9z"/>
<path d="M7367 3699 c7 -7 15 -10 18 -7 3 3 -2 9 -12 12 -14 6 -15 5 -6 -5z"/>
<path d="M7420 3700 c-9 -6 -10 -10 -3 -10 6 0 15 5 18 10 8 12 4 12 -15 0z"/>
<path d="M6943 3640 c0 -25 2 -35 4 -22 2 12 2 32 0 45 -2 12 -4 2 -4 -23z"/>
<path d="M843 3590 c0 -25 2 -35 4 -22 2 12 2 32 0 45 -2 12 -4 2 -4 -23z"/>
<path d="M6986 3610 c-14 -53 -12 -84 7 -88 14 -3 17 3 16 35 0 21 -4 47 -9
58 -7 19 -8 19 -14 -5z"/>
<path d="M6932 3510 c0 -14 2 -19 5 -12 2 6 2 18 0 25 -3 6 -5 1 -5 -13z"/>
<path d="M852 3465 c0 -16 2 -22 5 -12 2 9 2 23 0 30 -3 6 -5 -1 -5 -18z"/>
<path d="M6922 3420 c0 -14 2 -19 5 -12 2 6 2 18 0 25 -3 6 -5 1 -5 -13z"/>
<path d="M861 3384 c0 -11 3 -14 6 -6 3 7 2 16 -1 19 -3 4 -6 -2 -5 -13z"/>
<path d="M812 3330 c0 -19 2 -27 5 -17 2 9 2 25 0 35 -3 9 -5 1 -5 -18z"/>
<path d="M6911 3344 c0 -11 3 -14 6 -6 3 7 2 16 -1 19 -3 4 -6 -2 -5 -13z"/>
<path d="M871 3324 c0 -11 3 -14 6 -6 3 7 2 16 -1 19 -3 4 -6 -2 -5 -13z"/>
<path d="M826 3283 c-6 -14 -5 -15 5 -6 7 7 10 15 7 18 -3 3 -9 -2 -12 -12z"/>
<path d="M881 3264 c0 -11 3 -14 6 -6 3 7 2 16 -1 19 -3 4 -6 -2 -5 -13z"/>
<path d="M6941 3268 c0 -9 -4 -25 -7 -35 -5 -17 -5 -17 6 0 6 10 9 25 7 35 -4
15 -5 15 -6 0z"/>
<path d="M891 3214 c0 -11 3 -14 6 -6 3 7 2 16 -1 19 -3 4 -6 -2 -5 -13z"/>
<path d="M6952 3200 c0 -14 2 -19 5 -12 2 6 2 18 0 25 -3 6 -5 1 -5 -13z"/>
<path d="M6871 3134 c0 -11 3 -14 6 -6 3 7 2 16 -1 19 -3 4 -6 -2 -5 -13z"/>
<path d="M921 3074 c0 -11 3 -14 6 -6 3 7 2 16 -1 19 -3 4 -6 -2 -5 -13z"/>
<path d="M526 3027 c3 -10 9 -15 12 -12 3 3 0 11 -7 18 -10 9 -11 8 -5 -6z"/>
<path d="M405 3020 c3 -5 8 -10 11 -10 2 0 4 5 4 10 0 6 -5 10 -11 10 -5 0 -7
-4 -4 -10z"/>
<path d="M881 2995 c-1 -39 13 -64 23 -39 3 9 4 19 1 22 -3 3 -6 -1 -6 -9 -1
-8 -5 2 -9 21 -7 35 -7 35 -9 5z"/>
<path d="M400 2948 c0 -4 4 -8 9 -8 6 0 12 4 15 8 3 5 -1 9 -9 9 -8 0 -15 -4
-15 -9z"/>
<path d="M420 2921 c0 -10 19 -25 25 -20 1 2 -3 10 -11 17 -8 7 -14 8 -14 3z"/>
<path d="M907 2923 c-11 -11 -8 -31 6 -36 10 -4 13 2 9 19 -5 26 -6 27 -15 17z"/>
<path d="M6871 2914 c0 -11 3 -14 6 -6 3 7 2 16 -1 19 -3 4 -6 -2 -5 -13z"/>
<path d="M480 2894 c0 -8 5 -12 10 -9 6 3 10 10 10 16 0 5 -4 9 -10 9 -5 0
-10 -7 -10 -16z"/>
<path d="M6832 2865 c0 -16 2 -22 5 -12 2 9 2 23 0 30 -3 6 -5 -1 -5 -18z"/>
<path d="M7192 2868 c16 -10 45 -10 51 0 3 4 -10 7 -29 8 -21 0 -30 -3 -22 -8z"/>
<path d="M7145 2820 c-3 -5 -2 -10 4 -10 5 0 13 5 16 10 3 6 2 10 -4 10 -5 0
-13 -4 -16 -10z"/>
<path d="M7230 2810 c-13 -8 -12 -10 3 -10 9 0 17 5 17 10 0 12 -1 12 -20 0z"/>
<path d="M962 2775 c-2 -38 12 -64 21 -40 4 9 3 13 -2 10 -6 -3 -12 9 -14 27
l-4 33 -1 -30z"/>
<path d="M6796 2708 c-10 -30 -16 -68 -12 -68 6 0 36 60 36 72 0 13 -20 9 -24
-4z"/>
<path d="M1048 2604 c-3 -5 -6 -24 -6 -43 l-1 -34 15 27 c8 18 11 34 5 43 -4
9 -11 12 -13 7z"/>
<path d="M6776 2596 c3 -9 11 -16 16 -16 13 0 5 23 -10 28 -7 2 -10 -2 -6 -12z"/>
<path d="M6860 2580 c0 -5 5 -10 10 -10 6 0 10 5 10 10 0 6 -4 10 -10 10 -5 0
-10 -4 -10 -10z"/>
<path d="M1057 2513 c-4 -3 -7 -13 -7 -22 1 -13 3 -13 11 2 11 19 8 33 -4 20z"/>
<path d="M6696 2493 c-6 -14 -5 -15 5 -6 7 7 10 15 7 18 -3 3 -9 -2 -12 -12z"/>
<path d="M6662 2445 c-6 -14 -8 -25 -3 -25 8 0 23 41 17 47 -1 2 -8 -8 -14
-22z"/>
<path d="M1130 2350 c0 -5 5 -10 10 -10 6 0 10 5 10 10 0 6 -4 10 -10 10 -5 0
-10 -4 -10 -10z"/>
<path d="M1180 2331 c0 -6 4 -13 10 -16 6 -3 7 1 4 9 -7 18 -14 21 -14 7z"/>
<path d="M6617 2326 c-3 -8 1 -22 9 -33 13 -17 14 -16 8 12 -8 37 -10 39 -17
21z"/>
<path d="M6586 2295 c-9 -26 -7 -32 5 -12 6 10 9 21 6 23 -2 3 -7 -2 -11 -11z"/>
<path d="M1200 2290 c0 -5 5 -10 11 -10 5 0 7 5 4 10 -3 6 -8 10 -11 10 -2 0
-4 -4 -4 -10z"/>
<path d="M6605 2260 c-3 -5 1 -10 9 -10 9 0 16 5 16 10 0 6 -4 10 -9 10 -6 0
-13 -4 -16 -10z"/>
<path d="M799 2223 c-13 -15 -12 -15 9 -2 19 12 25 12 45 0 20 -13 21 -13 8 2
-7 10 -21 17 -31 17 -10 0 -24 -7 -31 -17z"/>
<path d="M730 2180 c0 -5 5 -10 10 -10 6 0 10 5 10 10 0 6 -4 10 -10 10 -5 0
-10 -4 -10 -10z"/>
<path d="M790 2186 c0 -2 8 -10 18 -17 15 -13 16 -12 3 4 -13 16 -21 21 -21
13z"/>
<path d="M849 2173 c-13 -16 -12 -17 4 -4 9 7 17 15 17 17 0 8 -8 3 -21 -13z"/>
<path d="M6543 2171 c0 -11 5 -18 9 -15 4 3 5 11 1 19 -7 21 -12 19 -10 -4z"/>
<path d="M1280 2161 c0 -6 4 -13 10 -16 6 -3 7 1 4 9 -7 18 -14 21 -14 7z"/>
<path d="M920 2130 c0 -5 7 -10 15 -10 8 0 15 5 15 10 0 6 -7 10 -15 10 -8 0
-15 -4 -15 -10z"/>
<path d="M1324 2101 c0 -11 5 -17 13 -14 10 4 11 9 2 19 -15 18 -15 18 -15 -5z"/>
<path d="M6486 2101 c-19 -21 -12 -28 13 -12 7 5 12 14 9 21 -2 7 -10 4 -22
-9z"/>
<path d="M1295 2090 c-3 -5 -1 -10 4 -10 6 0 11 5 11 10 0 6 -2 10 -4 10 -3 0
-8 -4 -11 -10z"/>
<path d="M6460 2051 c0 -6 4 -13 10 -16 6 -3 7 1 4 9 -7 18 -14 21 -14 7z"/>
<path d="M1340 2025 c0 -8 5 -15 10 -15 6 0 10 7 10 15 0 8 -4 15 -10 15 -5 0
-10 -7 -10 -15z"/>
<path d="M6445 2010 c-17 -8 -17 -9 7 -7 15 1 24 5 22 9 -3 4 -6 8 -7 7 -1 0
-11 -4 -22 -9z"/>
<path d="M6367 1938 c-29 -32 -31 -51 -3 -23 9 9 19 14 23 12 5 -3 8 6 8 19 0
13 0 24 0 24 0 -1 -12 -15 -28 -32z"/>
<path d="M1460 1956 c0 -2 8 -10 18 -17 15 -13 16 -12 3 4 -13 16 -21 21 -21
13z"/>
<path d="M6319 1943 c-13 -16 -12 -17 4 -4 16 13 21 21 13 21 -2 0 -10 -8 -17
-17z"/>
<path d="M1456 1911 c4 -16 3 -21 -5 -17 -6 4 -11 3 -11 -3 0 -5 4 -12 9 -15
14 -9 22 24 11 42 -9 14 -10 12 -4 -7z"/>
<path d="M6307 1865 c-4 -8 -3 -16 1 -19 4 -3 9 4 9 15 2 23 -3 25 -10 4z"/>
<path d="M1530 1866 c0 -2 8 -10 18 -17 15 -13 16 -12 3 4 -13 16 -21 21 -21
13z"/>
<path d="M1493 1849 c3 -9 0 -22 -6 -28 -15 -15 -1 -27 16 -13 8 7 17 9 20 5
17 -16 5 7 -15 28 -12 14 -19 17 -15 8z"/>
<path d="M6214 1818 l-19 -23 23 19 c21 18 27 26 19 26 -2 0 -12 -10 -23 -22z"/>
<path d="M6845 1830 c4 -6 11 -8 16 -5 14 9 11 15 -7 15 -8 0 -12 -5 -9 -10z"/>
<path d="M1570 1817 c0 -2 15 -16 33 -33 l32 -29 -29 33 c-28 30 -36 37 -36
29z"/>
<path d="M6219 1783 c-17 -19 -19 -25 -7 -20 11 4 19 0 22 -11 3 -9 4 -5 2 11
-2 15 1 27 5 27 5 0 9 -7 9 -15 0 -8 5 -15 10 -15 13 0 12 11 -4 32 -12 16
-15 16 -37 -9z"/>
<path d="M1525 1789 c-4 -6 -5 -12 -2 -15 2 -3 7 2 10 11 7 17 1 20 -8 4z"/>
<path d="M1569 1756 c27 -29 33 -32 25 -13 -2 7 -14 19 -27 26 -21 13 -21 12
2 -13z"/>
<path d="M6810 1746 c0 -8 4 -17 9 -20 5 -4 7 3 4 14 -6 23 -13 26 -13 6z"/>
<path d="M6124 1718 l-29 -33 33 29 c17 17 32 31 32 33 0 8 -8 1 -36 -29z"/>
<path d="M6195 1740 c-3 -5 -1 -10 4 -10 6 0 11 5 11 10 0 6 -2 10 -4 10 -3 0
-8 -4 -11 -10z"/>
<path d="M1715 1660 c38 -38 72 -70 74 -70 3 0 -26 32 -64 70 -38 39 -72 70
-74 70 -3 0 26 -31 64 -70z"/>
<path d="M1611 1704 c10 -12 10 -17 0 -23 -9 -6 -8 -11 5 -22 16 -12 17 -12
11 4 -4 11 -1 17 9 17 8 0 12 -5 9 -10 -6 -9 17 -40 29 -40 15 0 3 24 -28 55
-33 35 -60 49 -35 19z"/>
<path d="M6144 1691 c-15 -34 -11 -48 13 -48 27 0 46 19 37 40 -8 22 -41 28
-50 8z"/>
<path d="M6096 1631 c-4 -6 -13 -8 -21 -4 -11 4 -13 1 -8 -13 5 -13 3 -15 -7
-9 -9 5 -11 4 -6 -4 6 -9 11 -9 22 0 8 6 14 8 14 3 0 -5 5 -1 11 9 11 19 6 36
-5 18z"/>
<path d="M1695 1610 c-3 -5 -2 -10 4 -10 5 0 13 5 16 10 3 6 2 10 -4 10 -5 0
-13 -4 -16 -10z"/>
<path d="M5984 1578 l-19 -23 23 19 c21 18 27 26 19 26 -2 0 -12 -10 -23 -22z"/>
<path d="M1865 1520 c21 -22 41 -40 44 -40 3 0 -13 18 -34 40 -21 22 -41 40
-44 40 -3 0 13 -18 34 -40z"/>
<path d="M1763 1534 c0 -16 13 -19 21 -5 3 5 0 11 -7 14 -8 3 -14 -1 -14 -9z"/>
<path d="M1795 1519 c-6 -19 0 -38 9 -28 10 12 16 49 7 49 -5 0 -13 -9 -16
-21z"/>
<path d="M6010 1529 c0 -5 5 -7 10 -4 6 3 10 8 10 11 0 2 -4 4 -10 4 -5 0 -10
-5 -10 -11z"/>
<path d="M5894 1498 l-19 -23 23 19 c12 11 22 21 22 23 0 8 -8 2 -26 -19z"/>
<path d="M1930 1466 c0 -2 8 -10 18 -17 15 -13 16 -12 3 4 -13 16 -21 21 -21
13z"/>
<path d="M5834 1448 l-19 -23 23 19 c21 18 27 26 19 26 -2 0 -12 -10 -23 -22z"/>
<path d="M1847 1449 c7 -7 15 -10 18 -7 3 3 -2 9 -12 12 -14 6 -15 5 -6 -5z"/>
<path d="M1920 1441 c0 -6 4 -13 10 -16 6 -3 7 1 4 9 -7 18 -14 21 -14 7z"/>
<path d="M6150 1429 c0 -5 5 -7 10 -4 6 3 10 8 10 11 0 2 -4 4 -10 4 -5 0 -10
-5 -10 -11z"/>
<path d="M1980 1426 c0 -2 8 -10 18 -17 15 -13 16 -12 3 4 -13 16 -21 21 -21
13z"/>
<path d="M5779 1403 c-13 -16 -12 -17 4 -4 16 13 21 21 13 21 -2 0 -10 -8 -17
-17z"/>
<path d="M6101 1394 c0 -11 3 -14 6 -6 3 7 2 16 -1 19 -3 4 -6 -2 -5 -13z"/>
<path d="M1920 1389 c0 -5 5 -7 10 -4 6 3 10 8 10 11 0 2 -4 4 -10 4 -5 0 -10
-5 -10 -11z"/>
<path d="M1939 1371 c-11 -13 -11 -14 5 -8 13 5 19 2 23 -12 6 -22 43 -35 57
-21 7 7 4 10 -7 10 -11 0 -14 5 -10 17 5 13 2 15 -11 10 -13 -5 -17 -3 -13 6
7 18 -26 16 -44 -2z"/>
<path d="M5739 1373 c-13 -16 -12 -17 4 -4 9 7 17 15 17 17 0 8 -8 3 -21 -13z"/>
<path d="M5825 1380 c3 -5 8 -10 11 -10 2 0 4 5 4 10 0 6 -5 10 -11 10 -5 0
-7 -4 -4 -10z"/>
<path d="M6080 1373 c0 -26 10 -53 19 -53 11 0 7 32 -7 55 -11 20 -11 20 -12
-2z"/>
<path d="M5685 1334 l-30 -26 33 22 c17 12 32 23 32 26 0 7 -4 5 -35 -22z"/>
<path d="M5810 1350 c-13 -8 -12 -10 3 -10 9 0 17 5 17 10 0 12 -1 12 -20 0z"/>
<path d="M2049 1302 c-14 -17 -13 -18 23 -19 24 -1 36 2 32 8 -3 6 -12 8 -20
5 -8 -3 -14 -1 -14 3 0 5 6 12 13 14 8 4 7 6 -3 6 -9 1 -22 -7 -31 -17z"/>
<path d="M5690 1290 c0 -5 5 -10 10 -10 6 0 10 5 10 10 0 6 -4 10 -10 10 -5 0
-10 -4 -10 -10z"/>
<path d="M6140 1290 c-12 -8 -10 -10 8 -10 13 0 20 4 17 10 -7 12 -6 12 -25 0z"/>
<path d="M2155 1210 c3 -5 8 -10 11 -10 2 0 4 5 4 10 0 6 -5 10 -11 10 -5 0
-7 -4 -4 -10z"/>
<path d="M2227 1194 c-12 -13 21 -33 44 -27 24 5 24 5 4 -10 -13 -10 -15 -16
-7 -17 7 0 19 6 27 13 11 11 10 15 -6 25 -10 6 -26 9 -35 5 -12 -4 -15 -3 -10
5 7 12 -6 17 -17 6z"/>
<path d="M5436 1142 c-2 -4 4 -8 14 -8 10 0 16 4 14 8 -3 4 -9 8 -14 8 -5 0
-11 -4 -14 -8z"/>
<path d="M2298 1123 c7 -3 16 -2 19 1 4 3 -2 6 -13 5 -11 0 -14 -3 -6 -6z"/>
<path d="M6415 1120 c-3 -6 1 -7 9 -4 18 7 21 14 7 14 -6 0 -13 -4 -16 -10z"/>
<path d="M5300 1105 c-14 -8 -20 -14 -14 -15 5 0 19 7 30 15 24 18 16 19 -16
0z"/>
<path d="M6459 1073 c-13 -16 -12 -17 4 -4 16 13 21 21 13 21 -2 0 -10 -8 -17
-17z"/>
<path d="M2403 1058 c1 -20 12 -24 22 -8 10 16 25 12 19 -5 -4 -10 0 -15 15
-15 l22 0 -21 22 c-26 28 -59 31 -57 6z"/>
<path d="M2537 1069 c7 -7 15 -10 18 -7 3 3 -2 9 -12 12 -14 6 -15 5 -6 -5z"/>
<path d="M5210 1060 c-9 -6 -10 -10 -3 -10 6 0 15 5 18 10 8 12 4 12 -15 0z"/>
<path d="M5336 1056 c3 -9 11 -16 16 -16 13 0 5 23 -10 28 -7 2 -10 -2 -6 -12z"/>
<path d="M5315 1030 c-3 -5 -1 -10 4 -10 6 0 11 5 11 10 0 6 -2 10 -4 10 -3 0
-8 -4 -11 -10z"/>
<path d="M5140 1004 l-25 -15 25 7 c28 7 35 12 29 18 -2 2 -15 -2 -29 -10z"/>
<path d="M2575 1001 l20 -8 -20 -5 c-16 -5 -14 -6 8 -7 15 0 27 3 27 8 0 10
-25 21 -43 20 -7 0 -3 -4 8 -8z"/>
<path d="M2634 992 c3 -5 0 -13 -6 -15 -8 -3 -6 -6 5 -6 19 -1 23 14 5 25 -6
4 -8 3 -4 -4z"/>
<path d="M5176 991 c-3 -5 1 -11 9 -15 8 -3 15 -1 15 4 0 13 -18 22 -24 11z"/>
<path d="M5080 946 c0 -9 30 -14 35 -6 4 6 -3 10 -14 10 -12 0 -21 -2 -21 -4z"/>
<path d="M2725 909 c-4 -6 -5 -13 -2 -16 8 -7 47 7 47 18 0 13 -37 11 -45 -2z"/>
<path d="M2780 895 l-25 -14 28 -1 c17 0 26 4 22 10 -4 7 9 9 37 5 33 -3 37
-3 18 4 -36 13 -52 12 -80 -4z"/>
<path d="M3000 852 c0 -5 7 -9 15 -9 8 0 15 4 15 9 0 4 -7 8 -15 8 -8 0 -15
-4 -15 -8z"/>
<path d="M3068 823 c6 -2 18 -2 25 0 6 3 1 5 -13 5 -14 0 -19 -2 -12 -5z"/>
<path d="M4488 823 c7 -3 16 -2 19 1 4 3 -2 6 -13 5 -11 0 -14 -3 -6 -6z"/>
<path d="M4650 820 c-13 -8 -13 -10 2 -10 9 0 20 5 23 10 8 13 -5 13 -25 0z"/>
<path d="M1853 804 c-3 -8 -2 -19 3 -24 5 -5 9 1 9 16 0 28 -3 30 -12 8z"/>
<path d="M3123 813 c9 -2 25 -2 35 0 9 3 1 5 -18 5 -19 0 -27 -2 -17 -5z"/>
<path d="M3318 813 c7 -3 16 -2 19 1 4 3 -2 6 -13 5 -11 0 -14 -3 -6 -6z"/>
<path d="M4438 813 c7 -3 16 -2 19 1 4 3 -2 6 -13 5 -11 0 -14 -3 -6 -6z"/>
<path d="M4378 803 c7 -3 16 -2 19 1 4 3 -2 6 -13 5 -11 0 -14 -3 -6 -6z"/>
<path d="M4308 793 c6 -2 18 -2 25 0 6 3 1 5 -13 5 -14 0 -19 -2 -12 -5z"/>
<path d="M5723 785 c0 -8 4 -12 9 -9 4 3 8 9 8 15 0 5 -4 9 -8 9 -5 0 -9 -7
-9 -15z"/>
<path d="M3528 783 c6 -2 18 -2 25 0 6 3 1 5 -13 5 -14 0 -19 -2 -12 -5z"/>
<path d="M4228 783 c6 -2 18 -2 25 0 6 3 1 5 -13 5 -14 0 -19 -2 -12 -5z"/>
<path d="M5682 768 c7 -15 15 -23 17 -17 2 6 -4 18 -13 27 -15 15 -15 15 -4
-10z"/>
<path d="M3643 773 c9 -2 25 -2 35 0 9 3 1 5 -18 5 -19 0 -27 -2 -17 -5z"/>
<path d="M4113 773 c9 -2 25 -2 35 0 9 3 1 5 -18 5 -19 0 -27 -2 -17 -5z"/>
<path d="M3843 763 c26 -2 67 -2 90 0 23 2 2 3 -48 3 -49 0 -68 -1 -42 -3z"/>
<path d="M3529 749 c-10 -6 -4 -9 19 -9 17 0 32 2 32 4 0 9 -39 13 -51 5z"/>
<path d="M3377 738 c6 -10 54 -10 70 0 7 4 -8 7 -32 7 -23 0 -41 -3 -38 -7z"/>
<path d="M3600 741 c0 -5 -8 -12 -17 -14 -15 -4 -15 -5 -2 -6 9 0 22 6 29 14
9 10 9 15 1 15 -6 0 -11 -4 -11 -9z"/>
<path d="M3758 743 c12 -2 32 -2 45 0 12 2 2 4 -23 4 -25 0 -35 -2 -22 -4z"/>
<path d="M4285 741 l-40 -7 42 -5 c23 -2 39 -1 37 3 -2 3 8 9 23 11 25 4 26 4
3 4 -14 0 -43 -3 -65 -6z"/>
<path d="M1840 729 c0 -5 5 -7 10 -4 6 3 10 8 10 11 0 2 -4 4 -10 4 -5 0 -10
-5 -10 -11z"/>
<path d="M4170 730 c0 -5 7 -10 15 -10 8 0 15 5 15 10 0 6 -7 10 -15 10 -8 0
-15 -4 -15 -10z"/>
<path d="M3528 723 c6 -2 18 -2 25 0 6 3 1 5 -13 5 -14 0 -19 -2 -12 -5z"/>
<path d="M3768 723 c7 -3 16 -2 19 1 4 3 -2 6 -13 5 -11 0 -14 -3 -6 -6z"/>
<path d="M3858 723 c12 -2 30 -2 40 0 9 3 -1 5 -23 4 -22 0 -30 -2 -17 -4z"/>
<path d="M3928 723 c6 -2 18 -2 25 0 6 3 1 5 -13 5 -14 0 -19 -2 -12 -5z"/>
<path d="M4000 720 c0 -6 32 -10 75 -10 43 0 75 4 75 10 0 6 -32 10 -75 10
-43 0 -75 -4 -75 -10z"/>
<path d="M5707 693 c-4 -3 -7 -11 -7 -17 0 -6 5 -5 12 2 6 6 9 14 7 17 -3 3
-9 2 -12 -2z"/>
<path d="M5600 680 c0 -5 5 -10 10 -10 6 0 10 5 10 10 0 6 -4 10 -10 10 -5 0
-10 -4 -10 -10z"/>
<path d="M2379 623 c-12 -16 -12 -17 1 -7 8 7 24 14 35 17 19 4 19 5 -1 6 -12
0 -28 -7 -35 -16z"/>
<path d="M2290 600 c0 -5 7 -10 15 -10 8 0 15 5 15 10 0 6 -7 10 -15 10 -8 0
-15 -4 -15 -10z"/>
<path d="M2370 591 c0 -6 4 -13 10 -16 6 -3 7 1 4 9 -7 18 -14 21 -14 7z"/>
<path d="M5500 550 c-8 -5 -10 -10 -5 -10 6 0 17 5 25 10 8 5 11 10 5 10 -5 0
-17 -5 -25 -10z"/>
<path d="M5570 551 c0 -5 6 -11 13 -14 8 -3 14 1 14 9 0 8 -6 14 -14 14 -7 0
-13 -4 -13 -9z"/>
<path d="M5501 474 c0 -11 3 -14 6 -6 3 7 2 16 -1 19 -3 4 -6 -2 -5 -13z"/>
<path d="M5576 453 c-6 -14 -5 -15 5 -6 7 7 10 15 7 18 -3 3 -9 -2 -12 -12z"/>
<path d="M3440 450 c0 -5 5 -10 11 -10 5 0 7 5 4 10 -3 6 -8 10 -11 10 -2 0
-4 -4 -4 -10z"/>
<path d="M5456 431 c5 -17 3 -21 -6 -16 -9 5 -11 4 -6 -4 6 -9 11 -9 22 0 15
13 20 34 5 25 -5 -4 -12 0 -15 6 -3 7 -3 2 0 -11z"/>
<path d="M4485 430 c4 -6 11 -8 16 -5 14 9 11 15 -7 15 -8 0 -12 -5 -9 -10z"/>
<path d="M4615 430 c3 -5 10 -10 16 -10 5 0 9 5 9 10 0 6 -7 10 -16 10 -8 0
-12 -4 -9 -10z"/>
<path d="M4485 380 c3 -5 8 -10 11 -10 2 0 4 5 4 10 0 6 -5 10 -11 10 -5 0 -7
-4 -4 -10z"/>
<path d="M4485 340 c-3 -5 -1 -10 4 -10 6 0 11 5 11 10 0 6 -2 10 -4 10 -3 0
-8 -4 -11 -10z"/>
<path d="M4616 341 c-3 -5 1 -11 9 -14 9 -4 12 -1 8 9 -6 16 -10 17 -17 5z"/>
<path d="M2725 150 c-3 -5 -1 -10 4 -10 6 0 11 5 11 10 0 6 -2 10 -4 10 -3 0
-8 -4 -11 -10z"/>
<path d="M2750 61 c0 -6 4 -13 10 -16 6 -3 7 1 4 9 -7 18 -14 21 -14 7z"/>
<path d="M5196 43 c-6 -14 -5 -15 5 -6 7 7 10 15 7 18 -3 3 -9 -2 -12 -12z"/>
<path d="M5142 16 c7 -8 15 -12 17 -11 5 6 -10 25 -20 25 -5 0 -4 -6 3 -14z"/>
</g>
</svg>
